<?xml version="1.0" standalone="no"?>
<!DOCTYPE svg PUBLIC "-//W3C//DTD SVG 1.1//EN" "http://www.w3.org/Graphics/SVG/1.1/DTD/svg11.dtd" >
<svg xmlns="http://www.w3.org/2000/svg">
<metadata>Generated by IcoMoon</metadata>
<defs>
<font id="icomoon" horiz-adv-x="1024">
<font-face units-per-em="1024" ascent="960" descent="-64" />
<missing-glyph horiz-adv-x="1024" />
<glyph unicode="&#x20;" horiz-adv-x="512" d="" />
<glyph unicode="&#xe600;" glyph-name="iconfont-suo" d="M512.5-51.988c-283.054 0-512.5 229.446-512.5 512.5 0 283.028 229.446 512.5 512.5 512.5s512.5-229.472 512.5-512.5c0-283.054-229.446-512.5-512.5-512.5zM512.5 921.763c-251.202 0-461.25-210.33-461.25-461.25s210.048-461.25 461.25-461.25c251.202 0 461.25 210.33 461.25 461.25s-210.074 461.25-461.25 461.25zM281.875 511.762h102.5v153.75c0 98.836 33.774 128.125 128.125 128.125s128.125-29.29 128.125-128.125v-153.75h102.5v-307.5h-461.25v307.5zM589.376 665.512c0 49.43-29.699 76.875-76.875 76.875s-76.875-27.445-76.875-76.875v-153.75h153.75v153.75zM333.125 255.512h358.75v205h-358.75v-205z" />
<glyph unicode="&#xe601;" glyph-name="iconfont-jiudian" d="M512.5 973.013c-281.875 0-512.5-230.625-512.5-512.5s230.625-512.5 512.5-512.5c281.875 0 512.5 230.625 512.5 512.5s-230.625 512.5-512.5 512.5zM512.5 18.481c-243.438 0-442.032 198.594-442.032 442.032s198.594 442.032 442.032 442.032c243.438 0 442.032-198.594 442.032-442.032s-198.594-442.032-442.032-442.032zM384.375 447.7c44.844 0 76.875 32.031 76.875 76.875s-38.438 76.875-76.875 76.875-83.281-32.031-83.281-76.875c0-44.844 38.438-76.875 83.281-76.875zM698.282 607.856h-211.406v-185.781h-211.406v237.031h-51.25v-390.782h51.25v76.875h474.063v-76.875h51.25v230.625c0 57.656-44.844 108.906-102.5 108.906z" />
<glyph unicode="&#xe602;" glyph-name="iconfont-menpiao" d="M512.503 973.013c-281.878 0-512.503-230.625-512.503-512.504 0-281.87 230.625-512.497 512.503-512.497 281.872 0 512.498 230.625 512.498 512.497-0.001 281.879-230.627 512.504-512.498 512.504v0zM512.503 18.481c-243.442 0-442.035 198.593-442.035 442.028 0 243.442 198.593 442.035 442.035 442.035 243.437 0 442.029-198.593 442.029-442.035 0-243.435-198.593-442.028-442.029-442.028v0zM831.731 342.477c1.553 6.217-14.667 21.999-14.667 21.999l-331.903 331.904h-183.372v55.010h225.543c0 0 337.082-332.226 331.904-337.403 19.667-34.153-29.058-77.736-27.506-71.51v0zM794.212 350.212c37.571-37.623 0-75.241 0-75.241l-150.317-150.485c-37.572-37.611-75.137 0-75.137 0l-319.406 319.821v225.75h225.422c0.009 0 281.859-282.215 319.439-319.846v0zM399.629 594.796c-20.743 20.743-54.383 20.774-75.142 0-20.745-20.789-20.745-54.489 0-75.248 20.759-20.801 54.399-20.774 75.142 0 20.76 20.78 20.76 54.428 0 75.248v0z" />
<glyph unicode="&#xe603;" glyph-name="iconfont-ziyouxing" d="M512.503 973.013c-281.878 0-512.503-230.625-512.503-512.504 0-281.87 230.625-512.497 512.503-512.497 281.872 0 512.498 230.625 512.498 512.497-0.001 281.879-230.627 512.504-512.498 512.504v0zM512.503 18.481c-243.442 0-442.035 198.593-442.035 442.028 0 243.442 198.593 442.035 442.035 442.035 243.437 0 442.029-198.593 442.029-442.035 0-243.435-198.593-442.028-442.029-442.028v0zM530.497 192.998c0 0 92.29 168.86 92.040 168.579-0.797-0.907 153.404 91.949 153.404 91.949s-457.808 221.259-475.543 229.878c-11.504 4.788-18.694-5.747-15.34-15.324 3.837-7.665 245.44-475.082 245.44-475.082v0z" />
<glyph unicode="&#xe604;" glyph-name="iconfont-gantanhaom" d="M512.245 973.013c-282.665 0-511.821-229.155-511.821-511.817 0-282.669 229.156-511.821 511.821-511.821s511.818 229.152 511.818 511.821c0 282.662-229.153 511.817-511.818 511.817zM512.245 9.589c-249.412 0-451.606 202.192-451.606 451.606 0 249.41 202.195 451.603 451.606 451.603s451.606-202.194 451.606-451.603c-0.001-249.415-202.196-451.606-451.606-451.606zM512.245 717.103c-23.55 0-42.66-19.081-42.66-42.633v-277.253c0-23.551 19.11-42.632 42.66-42.632 23.551 0 42.633 19.081 42.633 42.632v277.253c0 23.552-19.082 42.633-42.633 42.633zM512.245 290.607c-23.55 0-42.66-19.114-42.66-42.661 0-23.551 19.11-42.662 42.66-42.662 23.551 0 42.633 19.111 42.633 42.662 0 23.547-19.082 42.661-42.633 42.661z" />
<glyph unicode="&#xe605;" glyph-name="iconfont-dingdan" d="M512.491 972.923c-282.999 0-512.411-229.413-512.411-512.405 0-283.004 229.412-512.415 512.412-512.415 283.015 0 512.428 229.41 512.428 512.415-0.002 282.993-229.411 512.405-512.429 512.405zM512.491-12.483c-261.233 0-472.999 211.748-472.999 473 0 261.227 211.764 472.993 472.999 472.993 261.227 0 473.010-211.766 473.010-472.993 0.002-261.252-211.778-473-473.010-473zM732.717 613.525l-102.951 104.952c-1.879 1.879-4.196 2.962-6.453 3.218v0.070h-301.384c-18.181 0-32.919-14.739-32.919-32.919v-456.667c0-18.18 14.738-32.919 32.919-32.919h380.976c18.181 0 32.919 14.739 32.919 32.919v372.177c0.614 2.994-0.456 6.516-3.107 9.168zM613.787 678.611l79.365-79.363h-71.134c-4.545 0-8.23 3.684-8.23 8.229v71.133zM679.324 238.813h-333.816c-9.091 0-16.46 7.368-16.46 16.459v410.479c0 9.091 7.369 16.459 16.46 16.459h229.083v-105.781c0-9.091 7.369-16.459 16.46-16.459h104.732v-304.698c0.001-9.091-7.368-16.459-16.459-16.459z" />
<glyph unicode="&#xe606;" glyph-name="iconfont-shouji" d="M514.756 973.013c-284.295 0-514.756-230.461-514.756-514.756 0-284.315 230.461-514.776 514.756-514.776 284.356 0 514.776 230.461 514.776 514.776 0.041 284.295-230.441 514.756-514.776 514.756zM514.756-16.913c-262.42 0-475.149 212.729-475.149 475.17s212.729 475.149 475.149 475.149c262.4 0 475.19-212.708 475.19-475.149s-212.749-475.17-475.19-475.17zM677.792 270.436c0-8.877-1.763-17.097-5.33-24.723-3.546-7.626-8.405-14.37-14.616-20.213-6.232-5.863-13.468-10.475-21.812-13.838-8.323-3.362-17.282-5.064-26.855-5.064h-188.784c-9.553 0-18.532 1.702-26.834 5.064-8.343 3.362-15.621 7.975-21.812 13.838-6.211 5.843-11.070 12.587-14.616 20.213s-5.33 15.846-5.33 24.723v367.422c0 8.877 1.784 17.179 5.33 24.989 3.546 7.79 8.405 14.637 14.616 20.48 6.211 5.863 13.489 10.455 21.812 13.817 8.302 3.382 17.261 5.064 26.834 5.064h188.784c9.573 0 18.511-1.681 26.855-5.064 8.343-3.362 15.6-7.975 21.812-13.817s11.070-12.689 14.616-20.48c3.567-7.79 5.33-16.113 5.33-24.989v-367.422zM634.681 612.335h-240.363v-315.864h240.363v315.864zM514.53 281.567c-7.462 0-13.94-2.665-19.414-7.975-5.494-5.309-8.241-11.89-8.241-19.68 0-7.421 2.747-13.899 8.241-19.373 5.494-5.514 11.952-8.241 19.414-8.241 7.79 0 14.35 2.747 19.659 8.241 5.33 5.494 7.995 11.952 7.995 19.373 0 7.79-2.665 14.37-7.995 19.68-5.309 5.33-11.87 7.975-19.659 7.975v0zM557.068 657.538c0 2.829-0.902 5.043-2.665 6.642-1.784 1.579-3.752 2.398-5.843 2.398h-67.548c-1.763 0-3.629-0.82-5.576-2.398-1.948-1.599-2.932-3.813-2.932-6.642 0-2.85 0.902-5.043 2.686-6.663 1.743-1.579 3.711-2.378 5.822-2.378h67.548c2.111 0 4.059 0.8 5.843 2.378 1.763 1.62 2.665 3.834 2.665 6.663v0z" />
<glyph unicode="&#xe607;" glyph-name="iconfont-tuichu" d="M736.361 811.37c-12.854 6.621-28.843 1.968-35.691-10.352-6.909-12.28-2.070-27.655 10.742-34.255 137.391-70.705 222.754-207.44 222.754-356.823 0-223.225-189.174-404.834-421.686-404.834-232.491 0-421.686 181.568-421.686 404.834 0 149.834 85.793 286.754 223.861 357.336 12.833 6.56 17.712 21.873 10.865 34.235-6.868 12.3-22.796 16.995-35.65 10.434-155.288-79.397-251.761-233.475-251.761-402.006 0-251.105 212.79-455.408 474.37-455.408 261.518 0 474.37 204.304 474.37 455.408 0.020 168.059-95.961 321.911-250.49 401.431zM512.5 384.601c14.534 0 26.363 11.316 26.363 25.338v531.279c0 13.961-11.808 25.277-26.363 25.277s-26.363-11.336-26.363-25.277v-531.279c-0.020-14.022 11.767-25.338 26.363-25.338z" />
<glyph unicode="&#xe608;" glyph-name="iconfont-hongbao" d="M511.414 973.013c-282.449 0-511.414-228.965-511.414-511.414 0-282.49 228.965-511.455 511.414-511.455 282.49 0 511.455 228.965 511.455 511.455 0 282.449-228.965 511.414-511.455 511.414zM511.414-10.496c-260.699 0-472.054 211.314-472.054 472.095 0 260.699 211.334 472.054 472.054 472.054 260.74 0 472.136-211.355 472.136-472.054 0-260.781-211.396-472.095-472.136-472.095zM626.215 645.812h-229.58c-36.223 0-65.6-29.377-65.6-65.58v-295.22c0-36.223 29.377-65.58 65.6-65.58h229.58c36.285 0 65.641 29.377 65.641 65.58v295.22c0 36.203-29.377 65.58-65.641 65.58zM659.015 284.991c0-18.143-14.698-32.82-32.82-32.82h-229.559c-18.122 0-32.78 14.678-32.78 32.82v180.646c27.859-28.966 75.666-35.711 147.334-35.711 72.098 0 120.027 6.888 147.846 36.285v-181.22h-0.020zM659.015 573.734h-0.123c-1.62-102.213-41.082-108.322-147.457-108.322-106.416 0-145.837 6.109-147.436 108.322h-0.143v6.498c0 18.081 14.698 32.78 32.78 32.78h229.58c18.122 0 32.82-14.678 32.82-32.78v-6.498h-0.020z" />
<glyph unicode="&#xe609;" glyph-name="iconfont-indexjifen" d="M513.956 973.013c-283.843 0-513.956-230.113-513.956-513.936s230.113-513.956 513.956-513.956c283.864 0 513.956 230.154 513.956 513.956 0 283.843-230.093 513.936-513.956 513.936zM513.956-15.313c-262.031 0-474.432 212.359-474.432 474.391s212.4 474.411 474.432 474.411c261.99 0 474.411-212.4 474.411-474.411s-212.4-474.391-474.411-474.391zM672.974 601.307h-98.257l40.754 40.754c9.84 9.84 9.84 25.809 0 35.65-9.84 9.82-25.809 9.82-35.65 0l-70.11-70.13-69.639 69.618c-9.799 9.799-25.707 9.799-35.486 0-9.82-9.82-9.82-25.707 0-35.506l40.405-40.405h-90.016c-36.982 0-66.953-29.971-66.953-66.953 0-31.18 21.341-57.4 50.205-64.841v-211.314c0-13.899 11.234-25.093 25.113-25.093h301.289c13.899 0 25.133 11.193 25.133 25.093v211.314c28.843 7.421 50.184 33.641 50.184 64.841-0.041 36.982-30.012 66.973-66.973 66.973zM354.938 517.605c-9.266 0-16.748 7.503-16.748 16.728 0 9.245 7.482 16.748 16.748 16.748h133.886v-33.477h-133.886zM639.477 283.269h-251.064v184.131h100.409v-108.793c0-13.858 11.255-25.113 25.113-25.113 13.879 0 25.113 11.234 25.113 25.113v108.793h100.409v-184.131h0.020zM672.974 517.605h-133.906v33.477h133.906c9.225 0 16.728-7.503 16.728-16.748 0.020-9.225-7.503-16.728-16.728-16.728z" />
<glyph unicode="&#xe60a;" glyph-name="iconfont-shoucang" d="M512.491 972.923c-282.999 0-512.411-229.413-512.411-512.405 0-283.004 229.412-512.415 512.412-512.415 283.014 0 512.428 229.411 512.428 512.415-0.002 282.993-229.411 512.405-512.429 512.405zM512.491-12.483c-261.233 0-472.999 211.748-472.999 473 0 261.227 211.764 472.993 472.999 472.993 261.227 0 473.010-211.766 473.010-472.993 0.002-261.252-211.778-473-473.010-473zM603.505 564.375l-82.926 114.989c-3.094 4.381-7.843 6.788-12.718 6.976-0.064 0.002-0.125 0.006-0.188 0.008-0.155 0.004-0.309 0.005-0.462 0.005-0.146 0-0.291 0-0.435-0.004-0.071-0.002-0.142-0.005-0.212-0.008-4.89-0.189-9.65-2.601-12.741-6.992l-83.33-115.438c-5.371-7.617-3.731-18.248 3.64-23.776 7.395-5.527 17.71-3.843 23.081 3.776l70.047 97.066 69.618-96.554c5.347-7.573 15.638-9.258 22.987-3.754 7.352 5.504 8.968 16.111 3.642 23.706zM653.132 237.778c0.116 0.084 0.232 0.17 0.349 0.258 0.056 0.043 0.111 0.088 0.167 0.132 3.845 3.026 6.277 7.776 6.198 13.144l-0.438 142.37c-0.134 9.321-7.711 16.956-16.921 17.097-9.233 0.125-16.587-7.3-16.454-16.62l0.385-119.699-113.077 37.196c-8.78 2.984-18.096-1.702-20.803-10.476-2.712-8.776 2.217-18.307 10.991-21.321l134.68-44.287c5.076-1.727 10.332-0.882 14.387 1.831 0.054 0.035 0.106 0.070 0.16 0.106 0.125 0.089 0.251 0.178 0.376 0.269zM743.367 514.437c-0.017 0.059-0.033 0.118-0.051 0.176-0.043 0.149-0.091 0.297-0.14 0.446-0.044 0.137-0.090 0.274-0.138 0.41-0.023 0.066-0.049 0.132-0.073 0.199-1.691 4.591-5.454 8.373-10.586 9.957l-135.543 43.577c-8.906 2.753-18.508-2.092-21.49-10.81-2.972-8.741 1.818-18.031 10.724-20.783l113.964-36.622-70.319-96.044c-5.552-7.427-3.973-17.736 3.533-23.023 7.509-5.288 18.097-3.548 23.673 3.865l83.742 114.398c3.211 4.295 4.032 9.557 2.704 14.254zM521.433 301.18c-2.709 8.775-12.025 13.46-20.804 10.476l-113.076-37.195 0.385 119.699c0.134 9.32-7.221 16.745-16.453 16.62-9.212-0.141-16.787-7.777-16.921-17.097l-0.439-142.37c-0.080-5.371 2.355-10.122 6.203-13.149 0.052-0.041 0.104-0.083 0.157-0.124 0.118-0.090 0.237-0.178 0.358-0.266 0.122-0.088 0.245-0.176 0.37-0.263 0.054-0.036 0.11-0.073 0.165-0.11 4.055-2.711 9.309-3.554 14.384-1.829l134.681 44.287c8.773 3.014 13.702 12.546 10.99 21.321zM438.623 558.392c-2.98 8.718-12.583 13.562-21.489 10.81l-135.543-43.577c-5.133-1.584-8.898-5.367-10.587-9.961-0.024-0.064-0.048-0.128-0.072-0.193-0.048-0.138-0.095-0.277-0.14-0.417-0.047-0.145-0.093-0.29-0.137-0.436-0.018-0.063-0.035-0.125-0.053-0.188-1.326-4.694-0.504-9.953 2.706-14.246l83.742-114.398c5.577-7.412 16.165-9.154 23.673-3.865 7.506 5.287 9.085 15.597 3.533 23.023l-70.319 96.044 113.964 36.623c8.905 2.752 13.695 12.042 10.722 20.781z" />
<glyph unicode="&#xe60b;" glyph-name="iconfont-kefudianhua" d="M512.5 973.013c-283.043 0-512.5-229.457-512.5-512.5 0-283.084 229.457-512.5 512.5-512.5 283.084 0 512.521 229.416 512.521 512.5 0 283.043-229.436 512.5-512.521 512.5zM512.5-12.526c-261.293 0-473.079 211.765-473.079 473.038 0 261.293 211.786 473.058 473.079 473.058 261.232 0 473.058-211.786 473.058-473.079 0.041-261.252-211.827-473.018-473.058-473.018zM613.238 240.035l18.348 9.861c-14.514 17.302-27.777 35.137-40.057 53.341-12.177 18.081-23.452 36.552-33.968 55.473l-26.916-14.493c-35.568 48.913-65.887 101.516-89.954 158.547l27.306 14.678c-10.557 18.511-20.418 37.413-29.397 56.805-9.327 20.152-17.732 40.959-25.030 62.505l-18.143-9.717c-30.75-17.179-43.87-38.684-39.339-64.555l0.266-1.107-0.123-0.061c1.455-6.273 2.993-12.505 4.633-18.675l0.061-0.287v-0.020c28.639-107.83 84.543-201.002 159.92-283.72 0.246-0.615 0.451-1.209 0.677-1.825 4.941-4.92 9.902-9.84 14.801-14.78 19.967-17.548 45.613-18.184 76.916-1.968v0zM647.124 258.28c-14.965 17.609-28.557 35.752-41.061 54.284-12.034 17.835-23.001 35.977-33.251 54.325l20.684 11.152c10.516-2.604 60.373-59.245 73.123-109.265l-19.495-10.496zM483.247 525.641c-10.25 17.979-19.905 36.47-28.761 55.616-9.491 20.541-18.040 41.779-25.379 63.898l17.507 9.409c24.17-18.737 57.995-101.188 54.427-119.311l-17.794-9.614z" />
<glyph unicode="&#xe60c;" glyph-name="iconfont-login" horiz-adv-x="2856" d="M314.551 768.258h50.533v-570.177h279.615v-43.796h-330.148v613.973zM695.25 463.376c0 194.559 106.122 315.836 254.348 315.836 149.917 0 255.193-121.278 255.193-315.836 0-195.396-105.276-320.038-255.193-320.038-148.227-0.009-254.348 124.643-254.348 320.038zM1152.577 463.376c0 166.756-80.855 270.35-202.978 270.35-121.278 0-201.288-103.594-201.288-270.35s80.009-274.568 201.288-274.568c122.123 0.009 202.978 107.812 202.978 274.568zM1306.72 461.694c0 196.25 112.013 317.519 273.723 317.519 83.373 0 136.443-38.741 170.129-74.117l-29.476-32.849c-31.158 33.686-73.273 61.471-139.808 61.471-136.443 0-221.507-104.431-221.507-270.35 0-167.593 80.009-274.568 218.143-274.568 52.215 0 102.74 15.994 130.542 43.788v184.457h-142.335v42.951h191.186v-246.766c-38.741-41.268-102.74-69.908-184.449-69.908-158.337 0.009-266.149 122.132-266.149 318.373zM1912.299 768.258h50.533v-613.973h-50.533v613.973zM2141.389 768.258h52.215l250.992-421.958 68.209-123.806h4.21c-3.373 60.626-6.738 122.114-6.738 181.922v363.834h47.997v-613.973h-52.215l-250.147 422.795-69.062 122.969h-4.201c2.527-58.953 6.738-116.232 6.738-177.712v-368.052h-48.006l0.009 613.981z" />
<glyph unicode="&#xe60d;" glyph-name="iconfont-camera" d="M513.312 578.799c-101.688 0-184.129-82.442-184.129-184.144 0-101.688 82.441-184.117 184.129-184.117s184.117 82.428 184.117 184.117c-0.001 101.703-82.428 184.144-184.117 184.144v0zM513.312 262.842c-72.802 0-131.813 59.023-131.813 131.813 0 72.803 59.009 131.813 131.813 131.813 72.818 0 131.814-59.009 131.814-131.813-0.001-72.775-58.996-131.813-131.814-131.813v0zM855.249 657.695c0 0-13.609 0-104.792 0-24.941 0-78.014 105.205-105.859 105.205h-263.354c-27.803 0-80.861-105.205-105.746-105.205-90.869 0-104.138 0-104.138 0-43.577 0-78.911-35.335-78.911-78.897v-420.863c0-43.606 35.335-78.911 78.911-78.911h683.889c43.606 0 78.911 35.291 78.911 78.911v420.863c0 43.563-35.305 78.897-78.91 78.897v0zM881.558 184.244c0-29.070-23.561-52.602-52.602-52.602h-631.286c-29.056 0-52.602 23.532-52.602 52.602v368.246c0 29.041 23.547 52.588 52.602 52.588 0 0 27.931 0 104.635 0 24.316 0 77.175 105.219 104.993 105.219h209.953c27.718 0 80.577-105.219 104.891-105.219 77.844 0 106.813 0 106.813 0 29.042 0 52.603-23.547 52.603-52.588v-368.246z" />
<glyph unicode="&#xe60e;" glyph-name="iconfont-geren" d="M511.517 923.179c73.799 0 140.638-29.93 189.027-78.315 48.384-48.385 78.312-115.226 78.312-189.026s-29.928-140.663-78.312-189.027c-12.125-12.122-25.395-23.075-39.65-32.689 56.473-21.362 107.179-54.446 149.146-96.291 76.519-76.349 123.86-181.732 123.86-298.021 0-20.088-16.302-36.389-36.412-36.389-20.083 0-36.385 16.301-36.385 36.389 0 96.35-39.086 183.529-102.269 246.544-63.163 62.995-150.444 102.017-246.879 102.141h-0.876c-96.478-0.124-183.759-39.146-246.901-102.141-63.185-63.016-102.268-150.193-102.268-246.544 0-20.088-16.303-36.389-36.409-36.389-20.086 0-36.388 16.301-36.388 36.389 0 116.289 47.34 221.672 123.879 298.021 41.926 41.845 92.631 74.928 149.107 96.291-14.235 9.613-27.507 20.567-39.63 32.689-48.364 48.363-78.292 115.227-78.292 189.027s29.928 140.64 78.292 189.026c48.385 48.385 115.228 78.315 189.048 78.315v0zM649.063 793.385c-35.196 35.196-83.833 56.997-137.546 56.997s-102.372-21.8-137.568-56.997-56.998-83.833-56.998-137.547c0-53.714 21.801-102.351 56.998-137.569 35.089-35.091 83.583-56.849 137.129-56.975h0.855c53.546 0.126 102.036 21.883 137.129 56.975 35.196 35.217 56.996 83.855 56.996 137.569s-21.798 102.351-56.995 137.547z" />
<glyph unicode="&#xe60f;" glyph-name="iconfont-jiantou" d="M858.544 477.52l-460.211 467.952c-7.139 7.258-18.812 7.357-26.073 0.217s-7.357-18.813-0.217-26.073l447.39-454.915-453.217-453.219c-7.2-7.2-7.2-18.873 0-26.073 3.601-3.601 8.319-5.4 13.038-5.4s9.437 1.801 13.038 5.4l466.145 466.145c7.159 7.159 7.207 18.749 0.109 25.966z" />
<glyph unicode="&#xe610;" glyph-name="iconfont-weizhifu" d="M512.491 972.923c-282.999 0-512.411-229.413-512.411-512.405 0-283.004 229.412-512.415 512.412-512.415 283.014 0 512.428 229.411 512.428 512.415-0.002 282.993-229.411 512.405-512.429 512.405zM512.491-12.483c-261.233 0-472.999 211.748-472.999 473 0 261.227 211.764 472.993 472.999 472.993 261.227 0 473.010-211.766 473.010-472.993 0.002-261.252-211.778-473-473.010-473zM732.717 613.525l-102.951 104.952c-1.879 1.879-4.196 2.962-6.453 3.218v0.070h-301.384c-18.181 0-32.919-14.739-32.919-32.919v-456.667c0-18.18 14.738-32.919 32.919-32.919h380.976c18.181 0 32.92 14.739 32.92 32.919v372.177c0.613 2.994-0.457 6.516-3.108 9.168zM613.787 678.611l79.365-79.363h-71.134c-4.545 0-8.231 3.684-8.231 8.229v71.133zM679.324 238.813h-333.816c-9.091 0-16.46 7.368-16.46 16.459v410.479c0 9.091 7.369 16.459 16.46 16.459h229.083v-105.781c0-9.091 7.368-16.459 16.459-16.459h104.732v-304.698c0.002-9.091-7.367-16.459-16.458-16.459zM540.86 439.805l49.628-49.627c7.829-7.829 7.829-20.53 0-28.358-7.839-7.829-20.53-7.829-28.368 0l-49.627 49.627-49.617-49.627c-7.829-7.829-20.53-7.829-28.359 0-7.837 7.828-7.837 20.529 0 28.358l49.629 49.627-49.629 49.618c-7.837 7.839-7.837 20.529 0 28.367 7.829 7.828 20.53 7.828 28.359 0l49.617-49.627 49.627 49.627c7.839 7.829 20.529 7.829 28.368 0 7.829-7.838 7.829-20.528 0-28.367l-49.628-49.618z" />
<glyph unicode="&#xe611;" glyph-name="iconfont-shenfenyanzheng" d="M512.377 973.013c-282.982 0-512.377-229.395-512.377-512.377s229.395-512.357 512.377-512.357c282.961 0 512.357 229.375 512.357 512.357s-229.395 512.377-512.357 512.377zM512.377-12.301c-261.232 0-472.956 211.704-472.956 472.956 0 261.211 211.745 472.956 472.956 472.956 261.191 0 472.956-211.745 472.956-472.956-0.020-261.252-211.786-472.956-472.956-472.956zM741.076 343.191c0 0-74.845 17.65-74.845 50.943 0 32.205 45.777 45.818 45.777 112.279 0 41.595-17.65 85.218-74.866 85.218-58.323 0-74.907-44.711-74.907-85.218 0-66.625 45.797-80.052 45.797-112.279 0-34.399-74.866-50.943-74.866-50.943v-54.079h207.911v54.079zM459.344 536.752h-156.025c-11.398 0-19.68 9.389-19.68 20.807s9.368 20.787 19.68 20.787h154.918c11.439 0 19.721-9.389 19.721-20.787s-8.261-20.807-18.614-20.807v0zM459.344 418.098h-156.025c-11.398 0-19.68 9.368-19.68 20.787s9.368 20.807 19.68 20.807h154.918c11.439 0 19.721-9.389 19.721-20.807 1.107-12.361-8.261-20.787-18.614-20.787v0zM459.344 298.501h-156.025c-11.398 0-19.68 9.368-19.68 20.787s9.368 20.787 19.68 20.787h154.918c11.439 0 19.721-9.368 19.721-20.787 1.107-11.418-8.261-20.787-18.614-20.787v0z" />
<glyph unicode="&#xe612;" glyph-name="iconfont-yizhifu" d="M512.491 972.923c-282.999 0-512.411-229.413-512.411-512.405 0-283.004 229.412-512.415 512.412-512.415 283.014 0 512.428 229.411 512.428 512.415-0.002 282.993-229.411 512.405-512.429 512.405zM512.491-12.483c-261.233 0-472.999 211.748-472.999 473 0 261.227 211.764 472.993 472.999 472.993 261.227 0 473.010-211.766 473.010-472.993 0.002-261.252-211.778-473-473.010-473zM732.717 613.525l-102.951 104.952c-1.879 1.879-4.196 2.962-6.453 3.218v0.070h-301.384c-18.181 0-32.919-14.739-32.919-32.919v-456.667c0-18.18 14.738-32.919 32.919-32.919h380.976c18.181 0 32.92 14.739 32.92 32.919v372.177c0.613 2.994-0.457 6.516-3.108 9.168zM613.787 678.611l79.365-79.363h-71.134c-4.545 0-8.231 3.684-8.231 8.229v71.133zM679.324 238.813h-333.816c-9.091 0-16.46 7.368-16.46 16.459v410.479c0 9.091 7.369 16.459 16.46 16.459h229.083v-105.781c0-9.091 7.368-16.459 16.459-16.459h104.732v-304.698c0.002-9.091-7.367-16.459-16.458-16.459zM612.019 487.393c4.324 4.323 6.606 9.668 6.846 16.033 0.241 6.364-1.802 11.708-6.123 16.031-4.323 4.324-9.609 6.426-15.852 6.305-6.245-0.119-11.53-2.342-15.853-6.664l-101.597-101.598-34.948 34.587c-4.322 4.321-9.606 6.544-15.851 6.666-6.245 0.119-11.529-1.983-15.851-6.305s-6.545-9.427-6.666-15.312 1.981-10.99 6.304-15.312l50.078-50.439c4.323-4.323 9.968-6.426 16.934-6.305 6.965 0.119 12.609 2.342 16.933 6.664l115.649 115.651z" />
<glyph unicode="&#xe613;" glyph-name="iconfont-shouji2" d="M514.756 973.013c-284.295 0-514.756-230.461-514.756-514.756s230.461-514.756 514.756-514.756c284.336 0 514.776 230.461 514.776 514.756 0.020 284.295-230.441 514.756-514.776 514.756zM514.756-16.913c-262.42 0-475.149 212.729-475.149 475.17s212.729 475.149 475.149 475.149c262.4 0 475.19-212.708 475.19-475.149s-212.749-475.17-475.19-475.17zM721.724 257.132h-413.875c-22.919 0-41.574 19.209-41.574 42.948v262.011c0 23.718 18.655 42.968 41.574 42.968h413.875c23.043 0 41.615-19.25 41.615-42.968v-262.011c0-23.739-18.573-42.948-41.615-42.948zM710.736 287.882l-129.355 118.654-21.197-19.25c-12.382-11.091-27.45-16.789-45.407-16.789-17.835 0-33.005 5.699-45.305 16.789l-21.197 19.25-129.396-118.654h391.858zM297.209 546.346v-236.714l128.925 120.007-128.925 116.707zM317.791 574.287l165.066-151.086c14.411-13.284 25.071-19.885 31.918-19.885 6.888 0 17.548 6.58 31.959 19.885l165.066 151.086h-394.011zM732.424 546.346l-128.925-116.727 128.925-120.007v236.734z" />
<glyph unicode="&#xe614;" glyph-name="iconfont-zhanghu" d="M514.694 968.584c-281.814 0-510.266-228.452-510.266-510.245 0-281.834 228.452-510.327 510.266-510.327 281.834 0 510.307 228.493 510.307 510.327 0 281.793-228.473 510.245-510.307 510.245zM514.694-12.731c-260.145 0-471.029 210.884-471.029 471.070 0 260.125 210.884 471.008 471.029 471.008s471.049-210.884 471.049-471.008c0-260.186-210.884-471.070-471.049-471.070zM513.464 400.078c-81.18 0-147.231 66.072-147.231 147.231 0 81.18 66.030 147.252 147.231 147.252s147.231-66.072 147.231-147.252c0-81.159-66.030-147.231-147.231-147.231zM513.464 662.191c-63.325 0-114.882-51.537-114.882-114.882s51.557-114.841 114.882-114.841 114.861 51.496 114.861 114.841c-0.020 63.345-51.537 114.882-114.861 114.882zM299.547 179.047l-32.226 2.87c0.225 2.48 5.863 61.52 38.622 121.216 19.516 35.568 44.67 64.063 74.743 84.563 37.638 25.666 82.779 38.704 134.152 38.704 51.27 0 96.411-12.73 133.988-37.884 30.053-20.070 55.186-47.991 74.723-82.841 32.759-58.548 38.355-116.502 38.561-118.88l-32.226-2.973c-0.020 0.513-5.412 54.305-35.055 106.928-38.725 68.511-99.261 103.279-179.97 103.279-81.036 0-141.757-35.814-180.523-106.498-29.582-53.813-34.727-107.994-34.789-108.486z" />
<glyph unicode="&#xe615;" glyph-name="iconfont-aixin" d="M942.168 587.74c0 143.244-112.43 259.838-250.421 259.838-68.163 0-132.674-29.405-179.247-79.566-46.638 50.161-111.213 79.566-179.247 79.566-138.055 0-250.421-116.53-250.421-259.838 0-4.805 0.448-9.097 0.833-12.62-0.064-1.153-0.128-2.306-0.128-3.523 0-25.369 6.15-53.236 18.258-82.833 0.384-1.089 0.769-2.114 1.217-3.075 76.299-183.027 370.025-393.6 382.518-403.274 7.752-5.958 16.977-8.905 26.266-8.905 9.417 0 18.706 3.075 26.522 9.161 10.698 8.328 261.247 188.664 360.672 359.263 3.78 5.766 6.598 11.339 9.097 16.144 0.769 1.538 1.473 3.075 2.306 4.548l0.32 0.705c0.32 0.577 0.705 1.217 1.089 1.73 5.958 11.595 10.698 22.358 14.478 32.864 10.314 27.034 15.375 51.122 15.375 73.608 0 1.73-0.064 3.267-0.192 4.548 0.32 2.947 0.705 6.919 0.705 11.659z" />
<glyph unicode="&#xe616;" glyph-name="iconfont-gougou" d="M859.754 460.503c0 191.315-155.64 346.954-346.953 346.954s-346.953-155.639-346.953-346.954c0.015-191.312 155.662-346.953 346.969-346.953h0.030c191.283 0 346.908 155.641 346.908 346.953zM897.773 460.503c0-212.276-172.683-384.97-384.927-384.97v19.010l-0.030-19.010c-212.268 0-384.972 172.694-384.988 384.97 0 212.277 172.697 384.971 384.973 384.971 212.274 0 384.971-172.694 384.971-384.971zM698.426 596.333c7.426-7.426 7.426-19.454 0-26.88l-258.218-258.218-113.018 113.015c-7.426 7.426-7.426 19.458 0 26.883s19.456 7.426 26.882 0l86.136-86.136 231.337 231.336c7.426 7.426 19.456 7.426 26.882 0z" />
<glyph unicode="&#xe617;" glyph-name="iconfont-qq" d="M512.5 973.013c-283.043 0-512.479-229.445-512.479-512.5s229.435-512.5 512.479-512.5 512.479 229.445 512.479 512.5-229.435 512.5-512.479 512.5zM794.662 300.783c-13.236-12.354-35.959 1.103-57.8 31.328-9.486-25.591-21.84-49.197-36.179-70.378 30.885-11.031 50.742-28.24 50.742-47.655 0-33.534-59.345-60.67-132.587-60.67-43.46 0-81.847 9.486-106.114 24.268-24.046-14.781-62.654-24.268-106.114-24.268-73.244 0-132.587 27.135-132.587 60.67 0 19.194 19.855 36.622 50.742 47.655-14.56 21.18-26.693 44.786-36.179 70.378-21.84-30.004-44.563-43.683-57.8-31.328-18.091 16.988-11.251 76.997 15.662 133.916 6.177 13.017 12.795 24.709 19.634 34.857 3.75 165.466 112.732 298.278 246.422 298.278h0.441c133.69 0 242.672-132.592 246.422-298.278 6.84-10.149 13.457-21.841 19.634-34.857 26.696-56.92 33.756-116.928 15.665-133.916z" />
<glyph unicode="&#xe618;" glyph-name="iconfont-weixin" d="M580.433 460.58c-11.681 0-23.367-10.848-23.367-24.202 0-10.85 11.679-21.699 23.367-21.699 17.531 0 30.049 10.85 30.049 21.699 0 13.353-12.517 24.202-30.049 24.202v0zM503.646 573.262c18.362 0 30.049 11.681 30.049 29.214 0 18.363-11.686 29.212-30.049 29.212-17.527 0-34.221-10.85-34.221-29.212-0.001-17.534 16.694-29.214 34.221-29.214v0zM512.827 972.452c-282.931 0-512.288-229.357-512.288-512.288 0-282.929 229.357-512.286 512.288-512.286 282.929 0 512.286 229.357 512.286 512.286 0.001 282.931-229.356 512.288-512.286 512.288v0zM416.008 330.377c-30.885 0-53.421 5.004-82.634 13.354l-84.3-42.572 24.21 71.785c-59.262 41.729-94.32 94.313-94.32 158.583 0 113.514 106.837 200.319 237.045 200.319 115.181 0 217.846-68.444 237.876-165.267-8.345 1.674-15.859 2.504-22.536 2.504-113.514 0-201.15-85.132-201.15-187.796 0-17.525 2.504-33.384 6.678-50.080-6.678-0.83-14.192-0.83-20.869-0.83v0zM764.061 248.581l16.69-60.099-63.433 35.889c-24.204-5.004-47.575-12.517-71.779-12.517-111.846 0-200.319 76.787-200.319 171.937s88.474 171.939 200.319 171.939c106 0 201.15-76.788 201.15-171.939 0-53.414-35.889-100.99-82.629-135.21v0zM338.383 631.687c-17.527 0-35.889-10.85-35.889-29.212 0-17.533 18.362-29.219 35.889-29.219 16.695 0 30.049 11.686 30.049 29.219 0 18.362-13.354 29.212-30.049 29.212v0zM711.478 460.58c-12.522 0-23.372-10.848-23.372-24.202 0-10.85 10.85-21.699 23.372-21.699 16.69 0 29.212 10.85 29.212 21.699 0 13.353-12.521 24.202-29.212 24.202v0z" />
<glyph unicode="&#xe619;" glyph-name="iconfont-zhifubao" d="M579.222 321.167c0 0-66.722-53.395-91.001-67.384-21.327-12.288-41.356-20.468-59.198-26.14-17.844-5.668-33.486-9.234-46.92-10.704s-24.561-2.414-33.377-2.836c-0.84-0.418-1.892-0.631-3.149-0.631h-10.077c-23.094 0-44.82 2.731-65.183 8.189s-38.1 13.539-53.218 24.248c-15.114 10.704-27.078 24.139-35.895 40.304-8.817 16.163-13.226 34.951-13.226 56.362 0.421 18.475 5.458 35.267 15.114 50.382 9.656 15.118 22.147 27.921 37.474 38.418 15.324 10.498 32.329 18.475 51.013 23.934 18.68 5.457 37.47 7.765 56.362 6.925 18.475-0.839 36.316-3.041 53.531-6.61s33.694-7.872 49.438-12.909c15.744-5.041 30.649-10.498 44.715-16.375 14.066-5.88 27.396-11.547 39.992-17.006 5.037-2.097 10.286-4.198 15.744-6.297 5.457-2.097 11.125-4.198 17.002-6.297 12.178 15.535 22.463 30.755 30.858 45.659 8.398 14.906 15.327 28.55 20.785 40.935 5.457 12.387 9.655 22.777 12.596 31.175 2.94 8.395 4.828 14.275 5.668 17.632h-273.324v30.232h129.104v69.901h-179.485v30.232h179.486v56.68c0 3.78 2.097 6.821 6.297 9.13 4.198 2.31 9.025 3.884 14.484 4.723 6.297 1.261 13.436 1.892 21.411 1.892h48.494v-72.425h184.522v-30.232h-184.522v-69.901h146.63c0.033 0.208 0.073 0.419 0.105 0.627v-0.627h-0.105c-2.95-18.709-7.949-38.44-15.008-59.202-5.877-18.054-14.588-38.626-26.136-61.716s-26.765-46.812-45.659-71.162c0 0 144.536-69.13 297.109-93.486 25.342 56.202 39.448 118.561 39.448 184.213 0 247.769-200.855 448.624-448.624 448.624s-448.624-200.857-448.624-448.626 200.855-448.624 448.624-448.624c153.691 0 289.325 77.289 370.172 195.114-82.172 17.88-169.435 54.123-303.45 113.658zM226.548 341.322c-1.684-76.977 85.418-82.697 98.846-83.11 44.386-1.365 80.237 15.4 108.159 31.984 27.917 16.584 73.458 59.416 75.137 60.885s3.357 3.044 5.037 4.723c-12.174 6.72-24.14 12.913-35.895 18.58s-71.481 37.742-124.49 43.232c-100.368 10.396-126.281-52.877-126.794-76.295z" />
<glyph unicode="&#xe61a;" glyph-name="iconfont-32pxchaxian" d="M534.251 460.494l356.14 356.14c6.369 6.369 6.369 16.686 0 23.024-6.369 6.369-16.688 6.337-23.058-0.031l-356.107-356.109-355.854 356.853c-6.369 6.371-16.688 6.371-23.058 0-6.369-6.368-6.369-16.686 0-23.057l355.853-356.853-356.108-355.108c-6.369-6.368-6.401-16.687-0.032-23.057 6.338-6.368 16.656-6.368 23.025 0l356.14 355.139 356.851-354.851c6.337-6.338 16.657-6.338 23.026 0.031s6.369 16.687 0.031 23.024l-356.851 354.853z" />
<glyph unicode="&#xe61b;" glyph-name="iconfont-jia" d="M94.924 496.363h833.785v-71.701h-833.785v71.701zM475.966 877.405h71.701v-833.785h-71.701v833.785z" />
<glyph unicode="&#xe61c;" glyph-name="iconfont-jian" d="M94.925 496.362h833.785v-71.7h-833.786v71.7z" />
<glyph unicode="&#xe61d;" glyph-name="iconfont-xie" d="M598.368 813.729l-467.904-0.343c-19.65 0-35.638-15.988-35.638-35.637v-699.048c0-19.65 15.988-35.637 35.638-35.637l699.175 0.342c19.651 0 35.637 15.987 35.637 35.637v536.763h30.547v-536.763c0-36.493-29.69-66.183-66.184-66.183l-699.175-0.343c-36.494 0-66.184 29.69-66.184 66.184v699.048c0 36.494 29.69 66.184 66.184 66.184l467.904 0.343v-30.547zM517.448 440.471c-7.005-7.005-18.362-7.005-25.368 0v0c-7.004 7.004-7.004 18.362 0 25.367l438.388 438.387c7.005 7.004 18.363 7.004 25.367 0v0c7.005-7.005 7.005-18.362 0-25.367l-438.387-438.387z" />
<glyph unicode="&#xe61e;" glyph-name="iconfont-pingjia" d="M881.047 844.888h-737.061c-44.073 0-79.924-35.821-79.924-79.825v-540.068c0-44.037 35.85-79.857 79.924-79.857h267.366l101.181-101.032 101.116 101.032h267.398c44.073 0 79.891 35.821 79.891 79.857v540.068c0 44.004-35.818 79.825-79.891 79.825v0zM879.373 729.801v-472.255c0-22.772-18.273-41.296-40.706-41.296h-258.411l-67.7-68.692-67.761 68.692h-258.35c-22.495 0-40.768 18.524-40.768 41.296v472.255c0 22.772 18.273 41.296 40.768 41.296h652.223c22.433 0 40.706-18.524 40.706-41.296v0zM628.438 509.008c0-29.277 23.831-53.14 53.108-53.14 29.309 0 53.14 23.863 53.14 53.14s-23.831 53.108-53.14 53.108c-29.277 0-53.108-23.831-53.108-53.108zM459.377 509.008c0-29.277 23.863-53.14 53.14-53.14s53.108 23.863 53.108 53.14c0 29.277-23.831 53.108-53.108 53.108s-53.14-23.831-53.14-53.108zM290.348 509.008c0-29.277 23.831-53.14 53.108-53.14s53.108 23.863 53.108 53.14c0 29.277-23.831 53.108-53.108 53.108s-53.108-23.831-53.108-53.108z" />
<glyph unicode="&#xe61f;" glyph-name="iconfont-quxiao" d="M732.107 636.070c0 12.462-4.845 24.17-13.639 32.966-8.798 8.797-20.503 13.641-32.968 13.641-12.462 0-24.17-4.845-32.966-13.641l-141.452-141.452-141.452 141.452c-8.796 8.797-20.503 13.641-32.966 13.641s-24.17-4.843-32.966-13.639c-8.797-8.797-13.639-20.504-13.639-32.966s4.843-24.17 13.639-32.966l141.451-141.454-141.451-141.454c-18.176-18.176-18.176-47.755 0-65.932 8.796-8.797 20.503-13.639 32.966-13.639s24.17 4.845 32.966 13.639l141.452 141.451 141.452-141.45c8.796-8.799 20.501-13.641 32.966-13.641s24.17 4.845 32.966 13.639c8.799 8.797 13.641 20.501 13.641 32.966s-4.845 24.17-13.639 32.969l-141.452 141.45 141.452 141.452c8.795 8.799 13.639 20.506 13.639 32.968zM512.501 63.274h-397.805v794.476h397.805v80.078h-417.825c-33.116 0-60.059-26.942-60.059-60.059v-834.515c0-33.116 26.942-60.059 60.059-60.059h417.825v80.078zM511.501 63.274h397.805v794.476h-397.805v80.078h417.825c33.116 0 60.059-26.942 60.059-60.059v-834.515c0-33.116-26.942-60.059-60.059-60.059h-417.825v80.078z" />
<glyph unicode="&#xe620;" glyph-name="iconfont-shanchu" d="M623.686 223.358c-17.615 0-31.852 14.237-31.852 31.852v350.418c0 17.615 14.237 31.858 31.852 31.858s31.858-14.243 31.858-31.858v-350.417c0.001-17.616-14.242-31.853-31.858-31.853v0zM432.554 223.358c-17.621 0-31.858 14.237-31.858 31.852v350.418c0 17.615 14.237 31.858 31.858 31.858 17.615 0 31.852-14.243 31.852-31.858v-350.417c0-17.616-14.237-31.853-31.852-31.853v0zM942.245 764.907h-159.28v63.711c0 52.691-42.528 95.568-94.835 95.568h-319.294c-52.685 0-95.562-42.878-95.562-95.568v-63.711h-159.28c-17.621 0-31.858-14.237-31.858-31.858 0-17.615 14.237-31.852 31.858-31.852h828.25c17.615 0 31.858 14.237 31.858 31.852 0.001 17.621-14.242 31.858-31.858 31.858v0zM336.985 828.619c0 17.553 14.3 31.858 31.852 31.858h319.294c17.461 0 31.124-13.986 31.124-31.858v-63.711h-382.27v63.711zM751.24 32.22h-446.050c-52.686 0-95.563 42.878-95.563 95.568v478.315c0 17.586 14.272 31.857 31.854 31.857 17.586 0 31.857-14.271 31.857-31.857v-478.315c0-17.586 14.301-31.858 31.854-31.858h446.049c17.582 0 31.854 14.272 31.854 31.858v477.013c0 17.582 14.242 31.854 31.857 31.854s31.858-14.272 31.858-31.854v-477.013c0-52.691-42.883-95.568-95.568-95.568v0z" />
<glyph unicode="&#xe621;" glyph-name="iconfont-weixin2" d="M693.798 625.409c11.788 0 23.383-0.897 35.042-2.178-31.391 146.191-187.639 254.777-366.053 254.777-199.427 0-362.786-135.877-362.786-308.525 0-99.617 54.325-181.425 145.166-244.975l-36.259-109.099 126.844 63.55c45.356-8.905 81.744-18.13 127.036-18.13 11.403 0 22.678 0.513 33.825 1.345-7.047 24.28-11.211 49.648-11.211 76.106 0.064 158.491 136.133 287.128 308.397 287.128zM498.791 723.745c27.419 0 45.42-18.002 45.42-45.292 0-27.163-18.002-45.356-45.42-45.356-27.098 0-54.389 18.194-54.389 45.356 0 27.355 27.227 45.292 54.389 45.292zM244.911 633.097c-27.227 0-54.645 18.194-54.645 45.356 0 27.291 27.419 45.292 54.645 45.292s45.292-17.938 45.292-45.292c0-27.163-18.066-45.356-45.292-45.356zM1025.001 342.637c0 145.038-145.166 263.233-308.205 263.233-172.649 0-308.525-118.259-308.525-263.233 0-145.422 135.941-263.233 308.525-263.233 36.131 0 72.583 9.033 108.842 18.13l99.489-54.581-27.291 90.713c72.839 54.709 127.164 127.164 127.164 208.972zM616.73 388.057c-18.002 0-36.259 17.938-36.259 36.259 0 18.066 18.258 36.259 36.259 36.259 27.547 0 45.42-18.194 45.42-36.259 0-18.322-17.873-36.259-45.42-36.259zM816.285 388.057c-17.873 0-36.067 17.938-36.067 36.259 0 18.066 18.13 36.259 36.067 36.259 27.291 0 45.42-18.194 45.42-36.259 0-18.322-18.13-36.259-45.42-36.259z" />
<glyph unicode="&#xe622;" glyph-name="iconfont-chenggong" d="M512.503 958.537c-275.422 0-498.69-223.269-498.69-498.69 0-275.416 223.269-498.684 498.69-498.684 275.416 0 498.684 223.269 498.684 498.684 0 275.422-223.269 498.69-498.684 498.69v0zM512.503 12.749c-246.93 0-447.104 200.174-447.104 447.098 0 246.93 200.174 447.104 447.104 447.104 246.923 0 447.098-200.174 447.098-447.104 0-246.923-200.174-447.098-447.098-447.098v0zM676.657 576.408l-212.792-212.792-115.515 115.515c-10.077 10.074-26.409 10.074-36.482 0-10.074-10.073-10.074-26.404 0-36.478l133.759-133.759c10.073-10.073 26.404-10.073 36.478 0l231.031 231.031c10.073 10.077 10.073 26.409 0 36.483s-26.405 10.073-36.478 0v0z" />
<glyph unicode="&#xe623;" glyph-name="iconfont-shibai" d="M306.882 652.16l168.981-168.972-168.981-168.973c-10.221-10.229-10.221-26.811 0-37.040 10.231-10.22 26.812-10.22 37.041 0l168.97 168.981 168.974-168.981c10.228-10.22 26.81-10.22 37.040 0 10.221 10.229 10.227 26.811 0 37.040l-168.974 168.973 168.974 168.972c10.227 10.227 10.221 26.811 0 37.039-10.23 10.222-26.812 10.229-37.040 0l-168.974-168.972-168.97 168.972c-10.229 10.229-26.81 10.222-37.041 0-10.221-10.229-10.221-26.812 0-37.039zM512.892 933.039c124.2 0 236.668-50.367 318.077-131.778 81.411-81.407 131.776-193.875 131.776-318.074s-50.366-236.666-131.776-318.076c-81.41-81.41-193.876-131.77-318.077-131.77-124.197 0-236.664 50.36-318.066 131.77-81.409 81.411-131.778 193.878-131.778 318.077s50.368 236.666 131.778 318.074c81.4 81.41 193.868 131.777 318.066 131.777v0zM799.167 769.462c-73.273 73.266-174.488 118.588-286.276 118.588-111.783 0-212.998-45.323-286.264-118.588-73.266-73.274-118.598-174.489-118.598-286.274 0-111.777 45.331-213.001 118.598-286.267s174.48-118.597 286.264-118.597c111.788 0 213.002 45.332 286.276 118.597 73.264 73.265 118.59 174.489 118.59 286.267 0 111.783-45.326 212.999-118.59 286.274z" />
<glyph unicode="&#xe800;" glyph-name="iconfont-ren" d="M185.069-7.945v106.875c0 186.756 146.812 338.167 327.913 338.167 181.119 0 327.952-151.41 327.952-338.167v-106.875h-655.865zM507.136 428.633c-122.639 0-222.072 108.138-222.072 241.536s99.434 241.535 222.072 241.535c122.66 0 222.076-108.138 222.076-241.535s-99.417-241.536-222.076-241.536z" />
<glyph unicode="&#xe801;" glyph-name="iconfont-xiangji" d="M352.998 407.212c0 88.091 71.412 159.503 159.503 159.503s159.503-71.412 159.503-159.503c0-88.091-71.412-159.503-159.503-159.503s-159.503 71.412-159.503 159.503zM877.276 713.813h-132.832l-36.105 69.072c-7.614 18.262-31.587 32.257-53.97 32.257h-283.716c-22.383 0-45.979-13.995-53.070-32.257l-33.7-69.072h-136.158c-67.148 0-121.578-54.45-121.578-121.578v-364.775c0-67.148 54.45-121.578 121.578-121.578h729.528c67.148 0 121.578 54.43 121.578 121.578v364.775c0.021 67.148-54.429 121.578-121.557 121.578zM512.5 153.912c-139.903 0-253.3 113.399-253.3 253.3s113.42 253.3 253.3 253.3c139.903 0 253.3-113.42 253.3-253.3 0-139.903-113.399-253.3-253.3-253.3z" />
<glyph unicode="&#xe802;" glyph-name="iconfont-canting" d="M1024.993 844.893c0 70.758-57.362 128.12-128.123 128.12h-768.74c-70.759 0-128.123-57.362-128.123-128.12v-768.725c0-70.758 57.364-128.12 128.123-128.12h768.74c70.76 0 128.123 57.362 128.123 128.12v768.725zM786.285 97.052c-0.069-30.926-8.008-50.559-37.467-50.507-29.404 0.069-35.838 19.823-35.769 50.767l-0.935 292.924c-1.072-0.12-83.438 11.208-111.184 94.113 0 0 33.763 391.62 160.619 391.309 32.381-0.069 23.127-85.724 23.127-85.724l1.609-692.882zM409.989 491.82h-15.031l21.188-395.736c0-30.945-27.934-50.681-57.374-50.681s-55.835 19.736-55.835 50.681l22.037 395.355-15.896 0.312c-12.074 0-70.364 106.946-70.364 125.628l27.381 256.375c0.069-0.329 38.364-1.504 38.364-1.504l-0.537-168.818c0-19.442-0.52-34.37 18.802-34.37s19.597 14.945 19.597 34.37v168.818h52.669v-171.067c0-19.442 2.542-31.844 21.864-31.844s18.992 12.402 18.992 31.844v171.067c0 0 30.27 0 31.965 0l26.931-254.871c-0.001-18.835-72.838-125.559-84.756-125.559z" />
<glyph unicode="&#xe803;" glyph-name="iconfont-chuifengji" d="M896.864 973.013h-768.741c-70.759 0-128.123-57.363-128.123-128.121v-768.724c0-70.758 57.364-128.121 128.123-128.121h768.74c70.76 0 128.123 57.363 128.123 128.121v768.724c0.001 70.758-57.362 128.121-128.122 128.121zM734.274 448.98l-23.907-10.548v-197.178c0-49.294 0-98.587-49.294-98.587h-147.882c0 0 73.941 98.587 73.941 147.881 0 30.466-9.416 98.54-16.613 146.11-21 0.246-41.061 0.739-57.328 1.774-66.646 4.191-197.177 24.647-197.177 24.647-31.45 1.972-73.942 24.648-73.942 123.236s42.491 121.263 73.942 123.236c0 0 130.53 18.633 197.177 22.822 66.645 4.19 197.177 0 197.177 0s98.588-25.14 98.588-146.059c0-82.075-45.498-120.87-74.681-137.335zM661.073 537.021c-27.211 0-49.294 22.084-49.294 49.294s22.085 49.294 49.294 49.294 49.294-22.084 49.294-49.294-22.084-49.294-49.294-49.294v0z" />
<glyph unicode="&#xe804;" glyph-name="iconfont-ditie" d="M367.048 223.497l-24.243-52.668h338.569l-23.407 52.668zM276.762 694.15h470.656v-157.167h-470.656v157.167zM433.926 745.978h158.837c7.243 0 13.371 2.51 18.39 7.524 5.017 5.016 7.525 11.146 7.525 18.394 0 7.801-2.508 14.21-7.525 19.224-5.019 5.017-11.147 7.524-18.39 7.524h-158.837c-7.245 0-13.373-2.506-18.392-7.524-5.017-5.013-7.524-11.423-7.524-19.224 0-7.248 2.507-13.378 7.524-18.394 5.019-5.014 11.147-7.524 18.392-7.524zM303.515 339.692c-10.59 0-19.509-3.622-26.755-10.864-7.242-7.25-10.867-16.164-10.867-26.755 0-10.031 3.626-18.67 10.867-25.916 7.245-7.245 16.164-10.869 26.755-10.869 10.030 0 18.664 3.624 25.914 10.869 7.242 7.245 10.865 15.886 10.865 25.916 0 10.59-3.623 19.503-10.865 26.755-7.25 7.241-15.884 10.864-25.914 10.864zM896.878 972.977h-768.74c-70.759 0-128.123-57.362-128.123-128.12v-768.724c0-70.758 57.364-128.121 128.123-128.121h768.74c70.761 0 128.123 57.363 128.123 128.121v768.724c0 70.758-57.362 128.12-128.123 128.12zM728.19 68.002l-22.574 50.992h-386.218l-22.572-50.992h-107.84l110.348 159.67c-21.736 6.131-39.57 18.393-53.501 36.785-13.935 18.391-20.901 39.569-20.901 63.534v366.16c0 14.488 3.763 28.283 11.287 41.379s16.721 25.081 27.588 35.945c10.87 10.868 22.015 20.203 33.437 28.007 11.428 7.802 21.318 13.653 29.682 17.557 8.359 3.898 17.555 8.078 27.586 12.537 10.033 4.46 22.013 8.359 35.945 11.705 13.935 3.344 30.098 6.127 48.489 8.359 18.389 2.229 39.847 3.345 64.369 3.345 27.864 0 52.386-1.257 73.564-3.764 21.18-2.506 39.711-5.853 55.594-10.031s29.817-8.918 41.797-14.211c11.986-5.294 22.99-10.73 33.022-16.304 10.031-5.572 20.62-11.981 31.765-19.228 11.152-7.243 21.183-15.462 30.096-24.658 8.918-9.197 16.301-19.646 22.154-31.35s8.78-24.803 8.78-39.289v-366.16c0-23.965-7.108-45.143-21.319-63.533-14.21-18.394-32.185-30.655-53.922-36.785l111.186-159.673h-107.84zM759.12 302.074c0 10.59-3.621 19.503-10.868 26.755-7.243 7.24-16.161 10.864-26.749 10.864-10.593 0-19.508-3.622-26.753-10.864-7.248-7.25-10.87-16.164-10.87-26.755 0-10.031 3.622-18.67 10.87-25.916 7.243-7.245 16.16-10.869 26.753-10.869 10.588 0 19.504 3.624 26.749 10.869 7.247 7.245 10.868 15.886 10.868 25.916z" />
<glyph unicode="&#xe805;" glyph-name="iconfont-jianshenfang" d="M1028.079 844.875c0 70.758-57.363 128.12-128.123 128.12h-768.74c-70.759 0-128.123-57.362-128.123-128.12v-768.724c0-70.758 57.364-128.121 128.123-128.121h768.74c70.76 0 128.123 57.363 128.123 128.121v768.724zM851.809 282.035c-42.328 0-76.64 34.309-76.64 76.63s34.312 76.63 76.64 76.63 76.641-34.307 76.641-76.63c0-42.32-34.313-76.63-76.641-76.63zM869.83 244.613c18.472 4.379 36.997-7.042 41.378-25.511s-7.043-36.989-25.516-41.37l-114.073-25.375c-9.523-2.258-17.182-0.309-22.972 4.634-1.464 0.849-2.648 1.967-3.463 3.368l-0.454 0.78c-1.715 2.231-3.195 4.792-4.444 7.638l-53.696 92.262h-513.612c-5.386 0-10.245 2.231-13.726 5.807-3.8 3.235-6.345 7.938-6.701 13.31l-2.533 38.228c-0.7 10.559 7.292 19.683 17.85 20.383l519.213 34.395c14.185 2.527 23.615-5.050 27.094-11.027l79.973-135.468 75.683 17.947zM672.238 409.12l-86.218 15.826c-8.412 1.368-15.635 5.618-20.829 11.577-0.337 0.369-0.654 0.761-0.966 1.157-0.049 0.061-0.097 0.123-0.145 0.184-0.17 0.221-0.352 0.426-0.515 0.655l-0.054 0.094c-1.683 2.256-3.094 4.71-4.199 7.312l-34.734 60.483-19.492-100.694-134.123-6.385 38.321 185.185c11.081 44.653 45.278 51.403 68.081 49.374 26.628 2.476 54.644-13.377 65.867-29.332l81.058-115.235 59.225-10.872c19.148-3.114 32.146-21.16 29.031-40.305-3.113-19.145-21.161-32.139-40.309-29.025zM537.022 648.373c-42.329 0-76.642 34.307-76.642 76.63 0 42.321 34.313 76.63 76.642 76.63 42.327 0 76.64-34.309 76.64-76.631s-34.313-76.629-76.64-76.629zM673.272 208.338l5.801-25.761c0-7.054-2.195-12.772-9.25-12.772h-554.327c-7.055 0-12.773 5.719-12.773 12.772v25.545c0 7.052 5.719 12.77 12.773 12.77h541.554c7.053-0.001 13.403-4.561 16.223-12.554z" />
<glyph unicode="&#xe806;" glyph-name="iconfont-jinjifuwu" d="M896.864 973.013h-768.741c-70.759 0-128.123-57.363-128.123-128.121v-768.724c0-70.758 57.364-128.121 128.123-128.121h768.74c70.76 0 128.123 57.363 128.123 128.121v768.724c0.001 70.758-57.362 128.121-128.122 128.121zM852.826 392.464h-272.266v-272.266h-136.133v272.266h-272.266v136.133h272.266v272.266h136.133v-272.266h272.266v-136.133z" />
<glyph unicode="&#xe807;" glyph-name="iconfont-kafei" d="M896.87 972.995h-768.74c-70.759 0-128.123-57.362-128.123-128.12v-768.724c0-70.758 57.364-128.121 128.123-128.121h768.74c70.76 0 128.123 57.363 128.123 128.121v768.724c0 70.758-57.362 128.12-128.123 128.12zM806.268 340.006c-34.89 0-65.366 18.942-81.909 47.029-26.215-58.036-73.814-104.258-132.898-128.497h214.868c9.881 0 17.89-8.012 17.89-17.891v-0.405c0-9.881-8.010-17.889-17.89-17.889h-543.184c-9.881 0-17.891 8.009-17.891 17.889v0.405c0 9.88 8.010 17.891 17.891 17.891h138.921c-90.988 37.324-155.124 126.684-155.124 231.12v71.279c0 13.826 11.207 25.034 25.030 25.034h66.628c-3.236 14.129-3.956 33.756 7.738 53.501 10.534 17.793 1.749 31.882 0.714 33.434-5.434 8.114-3.448 19.236 4.574 24.803 8.022 5.553 18.955 3.806 24.655-4.112 8.905-12.381 19.117-41.548 0.875-72.366-8.547-14.431-3.663-29.448-1.165-35.26h90.996c-6.822 20.172-8.134 48.419 11.066 77.842 22.921 35.127 2.693 55.551 2.483 55.747-7.071 6.911-7.205 18.257-0.293 25.321 6.911 7.079 18.256 7.204 25.321 0.308 14.436-14.102 33.539-53.355 2.482-100.947-19.987-30.633-4.432-54.163-1.374-58.272h88.922c-11.259 25.009-14.958 61.99 14.362 101.597 35.105 47.408 3.175 79.961 1.798 81.318-7.029 6.952-7.086 18.298-0.133 25.321 6.967 7.036 18.298 7.093 25.328 0.14 19.284-19.095 44.484-70.422 1.798-128.099-33.776-45.618-2.932-78.045-1.603-79.417 0.25-0.255 0.328-0.595 0.561-0.86h83.849c13.826 0 25.031-11.209 25.031-25.034v-51.943c16.332 13.214 37.088 21.167 59.683 21.167 52.425 0 95.078-42.654 95.078-95.085 0.002-52.415-42.651-95.070-95.076-95.070zM806.268 494.35c32.679 0 59.266-26.593 59.266-59.272s-26.587-59.259-59.266-59.259c-32.685 0-59.271 26.581-59.271 59.259s26.585 59.272 59.271 59.272z" />
<glyph unicode="&#xe808;" glyph-name="iconfont-kongtiao" d="M896.87 972.995h-768.74c-70.759 0-128.123-57.362-128.123-128.12v-768.724c0-70.758 57.364-128.121 128.123-128.121h768.74c70.76 0 128.123 57.363 128.123 128.121v768.724c0 70.758-57.362 128.12-128.123 128.12zM805.454 250.164l-75.474 43.581 0.051-76.899-70.874 40.909-0.98 77.434-108.78 62.816v-125.63l66.571-39.559v-81.814l-66.571 38.462v-87.139h-72.2v87.139l-66.561-38.462v81.814l66.561 39.559v125.63l-103.992-60.039-0.968-77.434-70.878-40.907 0.040 76.873-81.856-47.251-36.092 62.509 81.854 47.276-66.611 38.413 70.877 40.908 67.525-37.878 104.006 60.038-102.399 59.12-67.538-37.85-70.879 40.909 66.612 38.411-81.855 47.252 36.105 62.535 81.842-47.277-0.037 76.9 70.877-40.907 0.967-77.437 102.4-59.12v118.239l-66.561 39.559v81.841l66.561-38.488v94.5h72.2v-94.5l66.571 38.488v-81.842l-66.571-39.559v-118.24l107.187 61.871 0.982 77.435 70.874 40.933-0.051-76.9 75.475 43.558 36.093-62.507-75.46-43.585 66.609-38.384-70.876-40.935-67.539 37.877-107.188-61.896 108.779-62.814 67.541 37.877 70.876-40.908-66.624-38.412 75.475-43.558-36.096-62.534z" />
<glyph unicode="&#xe809;" glyph-name="iconfont-morentu" d="M256.006 653.067c35.378 0 64.063 28.683 64.063 64.061s-28.685 64.061-64.063 64.061c-35.379 0-64.063-28.684-64.063-64.061 0.001-35.378 28.684-64.061 64.063-64.061zM1024.994 844.893c0 70.758-57.363 128.12-128.123 128.12h-768.74c-70.76 0-128.123-57.362-128.123-128.12v-768.725c0-70.758 57.363-128.12 128.123-128.12h768.74c70.76 0 128.123 57.362 128.123 128.12v768.725zM256.006 845.248c70.756 0 128.123-57.366 128.123-128.12s-57.367-128.12-128.123-128.12-128.123 57.366-128.123 128.12c0 70.755 57.367 128.12 128.123 128.12zM127.883 12.107c-35.379 0-80.471 29.040-80.471 64.418v30.092l271.028 227.722 321.969-322.233h-512.527zM968.373 76.346c0-35.378-36.373-64.239-71.75-64.239h-165.535l-236.006 239.276 273.419 273.507 201.153-193.507-1.281-255.038z" />
<glyph unicode="&#xe80a;" glyph-name="iconfont-tingchechang" d="M563.709 688.075l-107.952 0.225v-232.76h101.983c98.589 0 121.906 42.339 121.906 109.53 0.001 70.697-24.527 122.71-115.936 123.005zM899.956 972.995h-768.74c-70.759 0-128.123-57.362-128.123-128.12v-768.724c0-70.758 57.364-128.121 128.123-128.121h768.74c70.76 0 128.123 57.363 128.123 128.121v768.724c0 70.758-57.362 128.12-128.123 128.12zM722.802 367.822c-41.944-19.431-75.456-24.444-123.808-29.246-83.017 0-144.025 0-144.025 0v-215.988h-134.592v675.848l273.015-0.028c42.423 0 78.187-7.167 107.192-21.417 105.025-63.543 103.322-130.665 106.489-212.075-3.154-119.696-26.119-162.822-84.27-197.094z" />
<glyph unicode="&#xe80b;" glyph-name="iconfont-wifi" d="M1024.993 844.893c0 70.758-57.362 128.12-128.123 128.12h-768.74c-70.759 0-128.123-57.362-128.123-128.12v-768.725c0-70.758 57.364-128.12 128.123-128.12h768.74c70.76 0 128.123 57.362 128.123 128.12v768.725zM206.631 385.657c84.854 83.481 187.168 125.221 306.943 125.221s221.404-41.741 304.885-125.221l-86.24-88.298c-60.238 60.238-133.469 90.357-219.696 90.357-86.225 0-159.457-30.119-219.695-90.357l-86.197 88.298zM381.126 209.061c35.593 35.594 79.392 53.391 131.396 53.391s95.803-17.797 131.396-53.391l-131.396-131.397-131.396 131.397zM30.033 560.152c134.141 132.769 295.307 199.153 483.495 199.153 188.191 0 348.668-66.385 481.438-199.153l-88.298-88.298c-109.497 108.126-240.894 162.187-394.19 162.187s-284.693-54.062-394.19-162.186l-88.255 88.297z" />
<glyph unicode="&#xe80c;" glyph-name="iconfont-youyongguan" d="M899.956 973.013h-768.74c-70.759 0-128.123-57.362-128.123-128.12v-768.725c0-70.758 57.364-128.12 128.123-128.12h768.74c70.76 0 128.123 57.362 128.123 128.12v768.725c0 70.758-57.362 128.12-128.123 128.12zM459.642 571.699c9.124 106.518 103.716 184.619 247.682 184.619 75.782 0 137.779-34.76 166.154-79.521 0 0 59.689-56.096 0-79.569-34.373-13.496-55.368 26.506-55.368 26.506-22.962 39.712-57.311 53.063-110.785 53.063-56.901 0-87.962-25.148-101.794-40.819 0.54-0.283 1.080-0.565 1.617-0.858l243.879-133.505c7.84-4.288 14.827-9.439 20.915-15.249-33.707-24.111-76.719-41.004-112.767-43.228-93.794-5.826-157.949 5.777-243.588 34.809-16.918 5.723-34.176 10.539-50.542 15.508-2.77 12.51-4.79 26.779-5.659 43.050-2.216 11.521-2.192 23.46 0.256 35.193zM305.714 756.319c68.84 0 124.646-53.402 124.646-119.331 0-38.558-19.122-72.834-48.779-94.639-4.251 8.009-6.613 17.331-6.613 28.372 0-13.733-3.354-26.618-9.347-38.352-17.777-9.343-38.191-14.66-59.907-14.66-68.84 0-124.621 53.404-124.621 119.282 0 65.926 55.78 119.329 124.621 119.329zM863.574 199.527c0 0-83.428-34.785-208.804-34.785-167.318 0-304.489 142.463-452.366 69.593v69.618c0-0.341 64.908 56.75 278.372-34.81 114.914-49.3 273.324-46.751 382.798 0.001v-69.617zM933.169 373.521c0 0-89.961-72.020-278.398-69.569-167.318 2.135-372.99 175.063-556.768 69.569v69.616c0 0 130.495 78.284 313.18 0 150.498-64.519 374.085-117.435 521.986 0v-69.616z" />
<glyph unicode="&#xe900;" glyph-name="iconfont-gongjiao" d="M828.504 69.269v0-63.209c0-17.444-14.122-31.604-31.585-31.604h-94.794c-17.463 0-31.623 14.16-31.623 31.604v63.209h-316.023v-63.209c0-17.444-14.141-31.604-31.604-31.604h-94.813c-17.444 0-31.604 14.16-31.604 31.604v63.209c-34.907 0-63.209 28.302-63.209 63.209v663.65c0 34.907 59.906 63.209 94.813 63.209 0 0 127.29 63.19 284.419 63.19 158.875 0 316.023-63.19 316.023-63.19 34.926 0 63.209-28.302 63.209-63.209v-663.65c0.019-34.888-28.283-63.209-63.209-63.209zM275.478 164.101c43.639 0 79.001 35.363 79.001 79.001s-35.363 79.001-79.001 79.001-79.001-35.363-79.001-79.001 35.363-79.001 79.001-79.001zM638.917 859.355h-252.834c-17.444 0-31.604-14.16-31.604-31.604 0-17.463 14.16-31.604 31.604-31.604h252.834c17.463 0 31.585 14.141 31.585 31.604 0 17.425-14.122 31.604-31.585 31.604zM828.504 669.711c0 17.463-14.122 31.604-31.585 31.604h-568.838c-17.444 0-31.604-14.141-31.604-31.604v-189.606c0-17.444 14.141-31.604 31.604-31.604h568.838c17.463 0 31.585 14.16 31.585 31.604v189.606zM749.504 322.103c-43.639 0-79.001-35.363-79.001-79.001s35.363-79.001 79.001-79.001 79.001 35.363 79.001 79.001-35.363 79.001-79.001 79.001z" />
<glyph unicode="&#xe901;" glyph-name="iconfont-iconfontllannotationwalk" d="M868.048 410.363c-14.314-124.321-283.777 95.593-283.777 95.593l-21.421-78.777c0 0 121.619-106.204 143.54-175.972l41.34-170.767c2.903-27.827-20.32-54.353-51.951-59.358-31.531-4.905-59.458 13.513-62.461 41.34l-33.933 140.237-145.742 121.519h5.906l-196.592-263.457c-22.322-24.724-60.96-26.826-86.284-4.604s-27.727 60.359-5.405 85.183l236.231 426.717c0 0-37.537-5.706-68.066-41.841-87.285-103.501-93.892-173.369-153.45-150.447-28.127 10.811-35.535 46.445-20.22 71.47l96.694 163.76c-29.229-47.947 28.728 71.97 235.63 111.109-10.010 16.716-16.216 35.935-16.216 56.755 0 61.46 50.349 111.309 112.41 111.309s112.61-49.849 112.61-111.309c0-51.25-35.134-93.892-82.781-106.904 3.604-7.107 6.907-14.915 9.609-23.723 189.585-252.146 243.538-158.255 234.329-237.832v0z" />
<glyph unicode="&#xe902;" glyph-name="iconfont-locate" d="M883.069 499.735c-18.251 174.46-156.886 313.097-331.348 331.348v60.909c0 21.795-17.56 39.184-39.222 39.184-21.812 0-39.222-17.543-39.222-39.184v-60.909c-174.46-18.251-313.097-156.886-331.348-331.348v0h-60.909c-21.795 0-39.184-17.56-39.184-39.222 0-21.812 17.543-39.222 39.184-39.222h60.909c18.251-174.46 156.886-313.097 331.348-331.348v0-60.909c0-21.795 17.56-39.184 39.222-39.184 21.812 0 39.222 17.543 39.222 39.184v60.909c174.46 18.251 313.097 156.886 331.348 331.348h60.909c21.795 0 39.184 17.56 39.184 39.222 0 21.812-17.543 39.222-39.184 39.222h-60.909zM512.5 166.347c-162.463 0-294.165 131.702-294.165 294.165s131.702 294.165 294.165 294.165c162.463 0 294.165-131.702 294.165-294.165s-131.702-294.165-294.165-294.165v0 0zM522.306 274.208c93.088 0 176.499 83.411 176.499 176.499 0 112.699-83.411 196.11-176.499 196.11-112.699 0-196.11-83.411-196.11-196.11 0-93.088 83.411-176.499 196.11-176.499v0z" />
<glyph unicode="&#xe903;" glyph-name="iconfont-lucheng" d="M512.5 973.013c-281.875 0-512.5-230.625-512.5-512.5s230.625-512.5 512.5-512.5c281.875 0 512.5 230.625 512.5 512.5s-230.625 512.5-512.5 512.5zM512.5 18.481c-243.438 0-442.032 198.594-442.032 442.032s198.594 442.032 442.032 442.032c243.438 0 442.032-198.594 442.032-442.032s-198.594-442.032-442.032-442.032zM390.782 627.075c12.813 0 19.219 6.406 19.219 19.219v44.844c0 12.813 6.406 19.219 19.219 19.219h160.156c12.813 0 19.219-6.406 19.219-19.219v-38.438c0-12.813 6.406-19.219 19.219-19.219s19.219 6.406 19.219 19.219v38.438c0 32.031-25.625 57.656-57.656 57.656h-153.75c-32.031 0-57.656-25.625-57.656-57.656v-38.438c-6.406-19.219 6.406-25.625 12.813-25.625zM730.313 588.637h-435.625c-32.031 0-57.656-25.625-57.656-64.063v-269.063c0-32.031 25.625-57.656 57.656-57.656h64.063c6.406-12.813 25.625-25.625 44.844-25.625s32.031 12.813 44.844 25.625h147.344c6.406-12.813 25.625-25.625 44.844-25.625s32.031 12.813 44.844 25.625h57.656c32.031 0 57.656 25.625 57.656 57.656v269.063c-12.813 38.438-38.438 64.063-70.469 64.063zM429.219 319.575c0-12.813-12.813-25.625-25.625-25.625s-25.625 12.813-25.625 25.625v128.125c0 12.813 12.813 25.625 25.625 25.625s25.625-12.813 25.625-25.625v-128.125zM659.844 319.575c0-12.813-12.813-25.625-25.625-25.625s-25.625 12.813-25.625 25.625v128.125c0 12.813 12.813 25.625 25.625 25.625s25.625-12.813 25.625-25.625v-128.125z" />
<glyph unicode="&#xe904;" glyph-name="iconfont-qiche" d="M929.080 476l-54.244-2.546h-4.674l4.674-27.975c30.9 0 55.951-25.051 55.951-55.962v-139.879c0-30.9-25.050-55.952-55.951-55.952h-0.327v-53.394c0-16.85-12.526-30.534-27.985-30.534h-83.968c-15.471 0-27.996 13.681-27.996 30.534v53.394h-446.826v-53.394c0-16.85-12.526-30.534-27.991-30.534h-83.968c-15.461 0-27.991 13.681-27.991 30.534v53.394h-0.311c-30.91 0-55.952 25.051-55.952 55.952v139.879c0 30.91 25.041 55.962 55.952 55.962l4.658 27.975h-4.658l-55.133 2.545c-16.513 0-28.794 8.569-28.794 25.431v111.902c0 16.85 11.447 27.976 27.977 27.976h55.952v-111.902h13.987l41.964 251.78c0 0 153.098 27.976 307.732 27.976 153.087 0 307.731-27.976 307.731-27.976l41.965-251.78h13.987v111.902h55.951c16.514 0 27.976-11.125 27.976-27.976v-111.902c-0.001-16.861-13.172-25.43-29.683-25.43zM231.822 249.211c46.375 0 83.969 37.689 83.969 84.192 0 46.502-37.592 84.193-83.969 84.193-46.374 0-83.968-37.691-83.968-84.193 0-46.503 37.592-84.192 83.968-84.192zM762.934 725.234c0 0-125.644 27.97-251.78 27.97-125.646 0-251.781-27.97-251.781-27.97l-55.952-251.78h615.462l-55.95 251.78zM790.469 417.596c-46.369 0-83.946-37.691-83.946-84.193 0-46.503 37.578-84.192 83.946-84.192 46.392 0 83.989 37.689 83.989 84.192s-37.597 84.193-83.989 84.193z" />
<glyph unicode="&#xe905;" glyph-name="iconfont-shuaxin" d="M677.526 224.954c-50.033-35.106-108.65-52.595-168.485-51.891-7.944 0.128-15.759 0.705-23.575 1.281-3.139 0.32-6.342 0.833-9.481 1.281-6.214 0.769-12.172 1.538-18.194 2.755-3.652 0.641-7.367 1.666-10.891 2.498-5.894 1.281-11.659 2.563-17.425 4.228-2.691 1.025-5.317 1.858-8.008 2.947-6.663 2.050-13.197 4.42-19.539 7.047-1.409 0.641-2.819 1.153-4.292 1.73-7.431 3.395-14.798 6.919-21.909 10.634-0.256 0.192-0.641 0.32-0.897 0.513-24.152 13.325-46.125 29.597-65.472 49.136-0.32 0.32-0.577 0.705-0.961 1.025-6.022 6.022-11.723 12.172-17.169 18.898-1.089 1.345-2.178 2.691-3.331 4.356-39.27 49.2-62.973 111.469-62.973 179.119h75.786l-121.27 181.81-121.078-181.681h75.658c0-79.566 24.92-153.366 67.074-214.481 0.513-0.897 0.833-1.858 1.409-2.627 4.356-6.342 9.225-12.044 13.902-17.873 1.794-2.114 3.331-4.292 5.253-6.727 6.855-8.264 14.286-16.144 21.781-23.895 0.769-0.769 1.409-1.409 2.050-2.114 25.369-25.433 53.941-46.702 85.139-63.87 0.833-0.448 1.538-0.833 2.498-1.345 8.969-4.869 18.194-9.289 27.483-13.389 2.37-1.025 4.613-2.050 6.919-3.011 8.072-3.395 16.272-6.278 24.536-9.097 3.908-1.345 7.752-2.627 11.723-3.908 7.239-2.050 14.606-3.908 22.038-5.638 4.997-1.153 9.738-2.434 14.863-3.331 2.050-0.513 3.972-1.153 6.086-1.345 7.111-1.281 14.158-1.922 21.077-2.755 2.563-0.448 5.125-0.897 7.623-1.153 12.62-1.217 25.241-1.986 37.797-1.986 76.875 0 151.956 23.511 216.403 68.675 20.5 14.414 25.561 42.794 11.211 63.166-14.606 20.564-42.858 25.561-63.358 11.019zM890.854 460.64c0 79.374-24.6 153.11-66.561 213.905-0.641 1.025-1.025 2.114-1.538 3.011-5.445 7.495-10.955 14.478-16.72 21.461-0.641 0.769-1.281 1.666-1.858 2.563-38.566 46.445-86.805 82.513-141.322 106.088-1.602 0.641-2.947 1.345-4.548 1.986-8.777 3.588-17.681 6.727-26.778 9.802-3.075 1.025-6.406 2.178-9.609 3.139-7.944 2.498-15.759 4.484-23.767 6.342-4.42 0.961-8.969 2.114-13.389 3.011-2.242 0.384-4.228 1.025-6.598 1.473-5.958 0.961-11.852 1.538-17.873 2.242-4.164 0.513-8.136 1.153-12.364 1.602-10.058 0.961-20.052 1.345-30.045 1.538-1.794 0-3.588 0.256-5.445 0.256-0.32 0-0.641-0.064-0.961-0.128-76.811-0.064-151.764-23.255-216.083-68.355-20.5-14.35-25.561-42.666-11.083-63.294 14.286-20.436 42.73-25.497 63.294-11.019 49.648 34.722 107.561 52.403 167.011 51.827 8.52-0.064 17.041-0.448 25.305-1.281 2.563-0.192 5.061-0.577 7.623-0.961 6.855-0.897 13.645-1.794 20.308-3.203 2.883-0.513 5.894-1.281 8.648-1.922 6.663-1.473 13.069-3.011 19.475-4.997 2.114-0.577 4.036-1.281 6.022-2.050 7.431-2.37 14.67-4.933 21.589-7.88 0.769-0.192 1.473-0.769 2.178-1.025 42.409-18.194 79.502-46.189 108.522-81.295 0.064-0.128 0.192-0.384 0.448-0.577 40.808-49.713 65.28-113.134 65.344-182.258h-75.85l121.334-181.745 121.014 181.745h-75.722z" />
<glyph unicode="&#xe906;" glyph-name="iconfont-time" d="M809.341 744.841c-79.207 79.16-184.479 122.773-296.514 122.773-111.993 0-217.277-43.613-296.449-122.781-79.203-79.192-122.821-184.496-122.821-296.505-0.020-112.025 43.565-217.304 122.757-296.545 79.163-79.123 184.455-122.737 296.436-122.737 112.033 0 217.361 43.645 296.589 122.821 163.445 163.457 163.469 429.448 0 592.973v0zM770.701 190.512c-68.898-68.884-160.504-106.859-257.949-106.859-97.377 0-188.957 37.956-257.809 106.775-68.853 68.868-106.76 160.456-106.748 257.901 0 97.429 37.931 189.029 106.807 257.873 68.865 68.849 160.417 106.763 257.826 106.763 97.417 0 188.989-37.912 257.873-106.767 142.152-142.19 142.152-373.544-0.001-515.686v0zM694.015 345.574l-144.932 83.821v228.576c0 19.29-15.652 34.942-34.946 34.942-19.282 0-34.934-15.652-34.934-34.942v-244.585c0-12.96 16.11-23.827 26.588-29.837 2.901-4.365 10.867-8.314 15.725-11.112l144.131-87.354c16.696-9.638 34.799-3.912 44.441 12.791 9.644 16.705 0.667 38.053-16.075 47.699v0z" />
<glyph unicode="&#xe907;" glyph-name="iconfont-weizhi" d="M512.5 973.013c-226.421 0-410-187.783-410-419.309 0-231.626 410-605.691 410-605.691s410 374.065 410 605.691c0 231.526-183.579 419.309-410 419.309zM512.5 383.637c-99.097 0-179.375 80.278-179.375 179.375s80.278 179.375 179.375 179.375 179.375-80.278 179.375-179.375c0-99.097-80.278-179.375-179.375-179.375z" />
<glyph unicode="&#xe908;" glyph-name="iconfont-nan" d="M511.817 908.306c-247.781 0-448.646-200.865-448.646-448.646s200.865-448.646 448.646-448.646 448.646 200.865 448.646 448.646-200.866 448.646-448.646 448.646zM513.807 79.106c-121.831 0-231.055 53.979-305.048 139.335l16.661 26.008c33.071 14.475 127.52 46.404 183.243 62.864 4.322 1.379 5.028 1.599 5.028 20.715 0 20.601-2.336 35.176-7.383 45.89-6.879 14.63-15.018 39.212-17.924 61.29-8.189 9.483-19.322 28.2-26.468 63.894-6.29 31.447-3.347 42.879 0.806 53.623 0.437 1.125 0.893 2.254 1.243 3.516 1.549 7.228-0.606 45.534-6.004 75.278-3.699 20.383 0.961 63.744 29.041 99.627 17.722 22.669 51.674 50.494 112.59 54.348l33.983 0.032c61.982-3.867 95.929-31.697 113.669-54.379 28.080-35.882 32.753-79.244 29.005-99.64-5.397-29.715-7.533-68.034-5.953-75.401 0.287-1.107 0.756-2.236 1.212-3.361 4.136-10.73 7.096-22.182 0.793-53.623-7.133-35.682-18.265-54.411-26.468-63.894-2.878-22.082-11.032-46.678-17.924-61.29-6.34-13.468-12.831-29.41-12.831-45.201 0-19.099 0.706-19.335 5.311-20.783 53.875-15.924 140.976-46.136 177.851-61.539l16.633-32.498c-73.9-82.735-181.397-134.81-301.070-134.81z" />
<glyph unicode="&#xe909;" glyph-name="iconfont-nv" d="M511.817 908.306c-247.781 0-448.646-200.865-448.646-448.646s200.865-448.646 448.646-448.646 448.646 200.865 448.646 448.646-200.866 448.646-448.646 448.646zM514.542 79.103c-105.339 0-201.245 40.359-273.105 106.45l22.133 25.648c68.454 26.6 166.901 54.968 166.901 61.271v36.456c0 0-46.24 7.685-75.665 7.685-29.429 0-50.444 1.832-75.665 33.36 31.524 55.691 67.256 181.007 67.256 245.12l0.469-0.168c4.911 88.463 77.986 158.748 167.675 158.748s162.765-70.267 167.675-158.748l0.473 0.168c0-64.095 35.728-189.415 67.256-245.12-25.22-31.528-46.24-33.36-75.665-33.36-29.429 0-75.669-10.512-75.669-10.512v-33.628c0-6.222 96.265-36.065 164.851-63.189l14.175-32.621c-70.646-60.801-162.58-97.559-263.095-97.559z" />
<glyph unicode="&#xe90a;" glyph-name="iconfont-daizhifu" d="M514.756 973.013c-284.295 0-514.756-230.461-514.756-514.756 0-284.315 230.461-514.776 514.756-514.776 284.356 0 514.776 230.461 514.776 514.776 0.041 284.295-230.441 514.756-514.776 514.756zM514.756-16.913c-262.42 0-475.149 212.729-475.149 475.17s212.729 475.149 475.149 475.149c262.4 0 475.19-212.708 475.19-475.149s-212.749-475.17-475.19-475.17zM683.081 494.46h-155.082v251.925c0 17.835-14.473 32.308-32.329 32.308-17.876 0-32.329-14.473-32.329-32.308v-280.277c-0.164-1.291-0.246-2.604-0.246-3.936 0-17.855 14.452-32.349 32.308-32.349h187.698c17.835 0 32.329 14.493 32.329 32.349s-14.493 32.288-32.349 32.288z" />
<glyph unicode="&#xe90b;" glyph-name="iconfont-express" d="M38.888 451.434v-207.907c0-14.629 11.907-26.516 26.521-26.516h54.278c0.030-66.94 54.253-121.183 121.208-121.183 66.925 0 121.198 54.243 121.198 121.183h54.278c14.664 0 26.521 11.887 26.521 26.481v431.808c0 14.646-11.857 26.518-26.471 26.518h-201.762c-8.829 0-17.127-4.431-22.052-11.738l-149.256-223.961c-2.758-4.117-4.264-8.979-4.414-13.924-0.015-0.245-0.065-0.51-0.050-0.761zM321.658 459.422h-209.979l107.76 161.62h102.22v-161.62zM180.291 217.026c0 33.393 27.197 60.609 60.594 60.609 33.393 0 60.604-27.197 60.604-60.609s-27.197-60.589-60.604-60.589c-33.413 0-60.594 27.177-60.594 60.589zM483.291 747.448v-495.228c0-19.419 15.74-35.194 35.184-35.194h126.403c0-66.935 54.263-121.178 121.198-121.178 66.94 0 121.198 54.243 121.198 121.178h86.019c19.424 0 35.164 15.775 35.164 35.194v495.228c0 19.424-15.74 35.179-35.179 35.179h-454.804c-19.459 0-35.184-15.755-35.184-35.179zM705.467 217.026c0 33.393 27.217 60.609 60.609 60.609s60.589-27.197 60.589-60.609-27.177-60.589-60.589-60.589-60.609 27.177-60.609 60.589z" />
<glyph unicode="&#xe90c;" glyph-name="iconfont-tuikuan" d="M516.89 967.743c-282.999 0-512.412-229.414-512.412-512.406 0-283.005 229.412-512.415 512.412-512.415 283.014 0 512.429 229.411 512.429 512.415-0.002 282.993-229.411 512.406-512.429 512.406zM516.89-17.664c-261.233 0-472.999 211.748-472.999 473 0 261.227 211.765 472.993 472.999 472.993 261.228 0 473.010-211.767 473.010-472.993 0.001-261.252-211.778-473-473.010-473zM432.904 578.058c-13.052 19.788-41.684 47.576-64.837 66.524l-37.473-26.947c23.158-21.051 50.103-50.523 61.888-69.89l40.421 30.314zM317.964 309.024l30.736-42.942c18.947 23.996 40.838 48.413 55.153 48.413 10.949 0 24.84-11.365 44.208-21.051 31.578-15.577 68.208-20.629 118.31-20.629 40.836 0 108.202 2.524 135.987 4.211 0.845 13.891 8.002 36.631 13.475 49.261-40.842-5.898-105.258-9.264-147.78-9.264-44.629 0-83.362 2.949-111.574 16.841-14.314 7.154-24.837 13.894-33.68 18.102v156.622h-97.257v-46.734h49.26v-112.836c-18.104-8-37.891-22.313-56.838-39.995zM468.268 643.317v-230.298c0-19.788-10.948-31.998-20.208-37.472 7.577-8.419 18.526-27.786 21.892-38.312 10.527 5.895 26.106 10.103 113.257 29.472-1.684 10.524-2.946 29.049-2.525 41.681l-61.47-11.369v80.415h138.937c-12.207-10.945-28.208-23.158-42.942-32.84-13.473 10.527-26.945 21.054-39.577 29.893l-33.26-24.418c42.943-32.422 95.572-79.154 118.727-110.307l36.631 28.629c-11.789 14.734-30.315 31.998-50.523 49.679 18.102 10.527 39.155 23.579 58.102 36.206l-33.262 26.95v162.091h-203.777zM623.626 517.432h-104.413v25.262h104.414v-25.262zM623.626 578.901h-104.413v24.418h104.414v-24.418z" />
<glyph unicode="&#xe90d;" glyph-name="iconfont-xincheng" d="M516.89 967.743c-282.999 0-512.412-229.414-512.412-512.406 0-283.005 229.412-512.415 512.412-512.415 283.014 0 512.429 229.411 512.429 512.415-0.002 282.993-229.411 512.406-512.429 512.406zM516.89-17.664c-261.233 0-472.999 211.748-472.999 473 0 261.227 211.765 472.993 472.999 472.993 261.228 0 473.010-211.767 473.010-472.993 0.001-261.252-211.778-473-473.010-473zM703.549 581.656h-363.947c-27.353 0-49.627-22.689-49.627-50.555v-235.955c0-22.774 14.86-42.080 35.227-48.387 6.171-20.747 25.141-35.881 47.49-35.881 21.567 0 39.963 14.090 46.787 33.707h204.19c6.827-19.617 25.218-33.707 46.79-33.707 22.353 0 41.298 15.134 47.485 35.881 20.373 6.307 35.227 25.613 35.227 48.387v235.954c0.001 27.867-22.254 50.556-49.622 50.556v0zM720.083 295.144c0-9.312-7.41-16.848-16.534-16.848h-16.551v-16.862c0-9.296-7.399-16.85-16.538-16.85s-16.55 7.554-16.55 16.85v16.862h-264.667v-16.862c0-9.296-7.411-16.85-16.551-16.85s-16.538 7.554-16.538 16.85v16.862h-16.551c-9.14 0-16.538 7.536-16.538 16.848v235.955c0 9.295 7.398 16.849 16.538 16.849h363.947c9.123 0 16.534-7.554 16.534-16.849v-235.955zM422.315 615.365c9.14 0 16.555 7.538 16.555 16.849v33.711c0 9.312 7.394 16.845 16.535 16.845h132.34c9.136 0 16.551-7.533 16.551-16.845v-33.711c0-9.312 7.399-16.849 16.538-16.849 9.136 0 16.535 7.538 16.535 16.849v33.711c0 27.867-22.255 50.556-49.624 50.556h-132.341c-27.354 0-49.628-22.689-49.628-50.556v-33.711c0.001-9.311 7.415-16.849 16.539-16.849zM422.315 497.389c-9.14 0-16.538-7.55-16.538-16.845v-134.845c0-9.294 7.398-16.844 16.538-16.844s16.555 7.55 16.555 16.844v134.845c0 9.295-7.415 16.845-16.555 16.845zM620.835 497.389c-9.14 0-16.555-7.55-16.555-16.845v-134.845c0-9.294 7.415-16.844 16.555-16.844 9.136 0 16.535 7.55 16.535 16.844v134.845c0 9.295-7.399 16.845-16.535 16.845z" />
<glyph unicode="&#xe90e;" glyph-name="iconfont-yizhifu2" d="M512.571 965.459c-282.999 0-512.411-229.413-512.411-512.405 0-283.005 229.412-512.415 512.412-512.415 283.014 0 512.429 229.411 512.429 512.415-0.002 282.993-229.412 512.405-512.43 512.405zM512.571-19.946c-261.233 0-472.999 211.748-472.999 473 0 261.227 211.765 472.993 472.999 472.993 261.228 0 473.010-211.767 473.010-472.993 0.002-261.252-211.777-473-473.010-473zM539.048 461.628v-73.865h131.12c14.615 0 26.433-11.867 26.433-26.46 0-14.589-11.819-26.388-26.433-26.388h-131.12v-82.87c0-14.592-11.888-26.39-26.435-26.39-14.616 0-26.502 11.798-26.502 26.39v82.87h-131.118c-14.617 0-26.437 11.799-26.437 26.388 0 14.592 11.821 26.46 26.437 26.46h131.118v73.865h-131.118c-14.617 0-26.437 11.8-26.437 26.389 0 14.592 11.821 26.461 26.437 26.461h122.027l-139.302 119.731c-10.98 9.494-12.166 26.111-2.658 37.141 9.511 10.961 26.224 12.216 37.202 2.653l140.349-120.639 140.282 120.639c11.048 9.563 27.692 8.308 37.202-2.653 9.58-11.032 8.321-27.647-2.658-37.141l-139.301-119.732h122.028c14.615 0 26.433-11.868 26.433-26.461 0-14.589-11.819-26.389-26.433-26.389h-131.118z" />
<glyph unicode="&#xe90f;" glyph-name="icon-door-buster" d="M122.024 850.989v-780.953h780.953v780.953h-780.953zM756.549 558.132v0-390.476h-488.096v439.286h97.619v97.619c0 0 0 48.81 48.81 48.81h195.239c48.81 0 48.81-48.81 48.81-48.81v-97.619h97.619v-48.81zM610.12 704.561h-195.239v-97.619h195.239v97.619zM658.929 509.322h-48.81v48.81h-195.239v-48.81h-48.81v48.81h-48.81v-341.667h390.476v341.667h-48.81v-48.81z" />
<glyph unicode="&#xe910;" glyph-name="iconfont-dianhua" d="M745.155 12.81h-0.018l-4.624 0.103c-107.578 5.502-252.857 106.756-388.665 270.861l-50.164 60.591c-135.808 164.116-206.959 324.402-190.32 428.772 11.743 73.633 121.216 135.774 183.769 135.774 30.81 0 41.972-15.333 45.875-24.488 35.411-62.929 79.225-172.367 79.427-211.619l0.013-2.794-1.002-2.608c-7.81-20.632-25.284-30.517-40.701-39.236-20.31-11.477-31.852-19.014-33.261-40.71-0.419-6.584 5.26-36.537 94.858-146.985l38.306-46.254c89.846-106.033 118.113-117.446 124.732-118.39 21.666-3.014 31.868 6.486 47.451 23.567 11.863 13.007 25.32 27.768 47.524 31.019l2.812 0.4 2.765-0.587c39.126-8.251 139.278-72.795 196.135-120.715 8.209-5.448 22.535-21.623 11.191-57.355-17.795-56.118-95.374-139.348-166.101-139.348v0z" />
<glyph unicode="&#xe911;" glyph-name="iconfont-gentuanyou" d="M324.706 675.194l238.243-389.843 205.75 411.5zM297.764 676.028h-63.18l324.209-554.287 46.709 31.138zM512.5 973.013c-281.875 0-512.5-230.625-512.5-512.5s230.625-512.5 512.5-512.5c281.876 0 512.5 230.624 512.5 512.5s-230.625 512.5-512.5 512.5zM512.5 18.481c-243.438 0-442.032 198.594-442.032 442.032s198.594 442.032 442.032 442.032 442.032-198.595 442.032-442.033c0-243.437-198.594-442.031-442.032-442.031z" />
<glyph unicode="&#xe912;" glyph-name="iconfont-meishi" d="M512.5 973.013c-281.875 0-512.5-230.625-512.5-512.5s230.625-512.5 512.5-512.5c281.876 0 512.5 230.624 512.5 512.5s-230.625 512.5-512.5 512.5zM512.5 18.481c-243.438 0-442.032 198.594-442.032 442.032s198.594 442.032 442.032 442.032 442.032-198.595 442.032-442.033c0-243.437-198.594-442.031-442.032-442.031zM495.939 530.473v203.984h-36.446v-185.789h-33.226v185.789h-36.431v-185.789h-33.293v185.789h-36.366l-0.064-204.115c0.101-22.786 18.688-41.343 41.434-41.343h5.004l0.045-330.104c0-10.054 8.179-18.234 18.234-18.234h46.44c10.042 0 18.212 8.18 18.212 18.234v180.785l-0.041 5.049v144.27h5.005c22.855 0 41.45 18.605 41.45 41.476h0.041zM704.885 669.805c0 35.649-28.98 64.651-64.602 64.651-35.663 0-64.676-29.002-64.676-64.651v-250.44h46.457v-260.472c0-10.031 8.171-18.193 18.215-18.193h46.436c10.019 0 18.17 8.161 18.17 18.193v510.912z" />
<glyph unicode="&#xe913;" glyph-name="iconfont-shangping" d="M512.5 973.013c-281.875 0-512.5-230.625-512.5-512.5s230.625-512.5 512.5-512.5c281.876 0 512.5 230.624 512.5 512.5s-230.625 512.5-512.5 512.5zM512.5 18.481c-243.438 0-442.032 198.594-442.032 442.032s198.594 442.032 442.032 442.032 442.032-198.595 442.032-442.033c0-243.437-198.594-442.031-442.032-442.031zM666.673 628.33h-308.375c-21.908 0-39.716-17.807-39.716-39.717v-308.43c0-21.908 17.807-39.715 39.716-39.715h308.403c21.91 0 39.717 17.806 39.717 39.715v308.457c-0.028 21.91-17.834 39.69-39.745 39.69zM631.553 518.126l-0.82-0.438-0.111-0.93c-8.45-58.344-59.245-102.354-118.135-102.354s-109.684 44.010-118.137 102.354l-0.135 0.93-0.822 0.438c-5.854 3.472-9.354 9.353-9.354 15.808 0 10.23 8.315 18.545 18.572 18.545 10.23 0 18.545-8.315 18.545-18.545 0-5.389-2.435-10.42-6.893-14.114l-0.877-0.684 0.191-1.094c7.797-48.934 49.4-84.437 98.909-84.437 49.507 0 91.112 35.532 98.907 84.437l0.191 1.066-0.848 0.684c-4.485 3.721-6.893 8.727-6.893 14.114 0 10.23 8.316 18.546 18.544 18.546v0 0 0c10.258 0 18.573-8.316 18.573-18.546-0.026-6.427-3.526-12.308-9.407-15.78z" />
<glyph unicode="&#xe914;" glyph-name="iconfont-share" d="M768 329.846c-70.971 0-131.938-42.22-160.217-102.715l-290.028 133.829c22.686 29.696 36.706 66.481 36.706 106.732 0 40.409-14.178 77.273-37.022 107.126l286.011 143.045c25.994-65.615 89.797-112.325 164.549-112.325 97.674 0 177.231 79.557 177.231 177.231s-79.557 177.231-177.231 177.231-177.231-79.557-177.231-177.231c0-8.901 1.418-17.408 2.599-25.915l-304.837-152.418c-30.484 24.891-68.923 40.487-111.301 40.487-97.753 0-177.231-79.557-177.231-177.231s79.478-177.231 177.231-177.231c42.457 0 80.896 15.596 111.458 40.566l306.176-141.154c-2.521-12.052-4.096-24.497-4.096-37.258 0-97.674 79.557-177.231 177.231-177.231s177.231 79.557 177.231 177.231-79.557 177.231-177.231 177.231zM768 920.615c76.012 0 137.846-61.834 137.846-137.846s-61.834-137.846-137.846-137.846-137.846 61.834-137.846 137.846 61.834 137.846 137.846 137.846zM177.231 329.846c-76.012 0-137.846 61.834-137.846 137.846s61.834 137.846 137.846 137.846 137.846-61.834 137.846-137.846-61.834-137.846-137.846-137.846zM768 14.769c-76.012 0-137.846 61.834-137.846 137.846s61.834 137.846 137.846 137.846 137.846-61.834 137.846-137.846-61.834-137.846-137.846-137.846z" />
<glyph unicode="&#xe915;" glyph-name="iconfont-cart" d="M994.372 687.002c-21.675-45.875-117.35-266.786-130.389-287.232-1.536-2.423-2.935-4.813-4.267-7.066-12.698-21.777-26.112-38.434-72.465-38.434h-441.754c9.284-28.126 28.535-62.839 68.642-62.839h382.43c11.332 0 20.48-9.182 20.48-20.48s-9.148-20.48-20.48-20.48h-382.43c-56.764 0-98.167 44.442-113.664 112.538-8.533 37.547-112.026 383.898-119.433 411.034-7.953 17.237-26.419 29.628-44.373 29.628h-94.174c-11.298 0-20.48 9.182-20.48 20.48s9.182 20.446 20.48 20.446h94.174c35.123 0 68.267-1.877 82.534-35.157 0.375-0.887 0.683-1.741 0.956-2.697 4.062-14.882 89.873-319.181 114.347-411.546h452.745c26.556 0 29.218 4.54 37.103 18.125 1.604 2.731 3.243 5.53 5.086 8.431 12.151 19.081 107.11 238.694 127.351 281.395 8.431 22.084 6.895 34.099 4.574 37.513-1.536 2.185-6.417 3.516-13.107 3.516-44.373-0.649-606.686-0.034-626.21 0-11.332 0.034-20.48 9.182-20.446 20.48 0.034 11.332 9.182 20.446 20.48 20.446h0.034c4.813 0 581.53-0.683 625.869 0 26.965 0 40.516-11.571 47.172-21.299 12.254-17.852 11.981-43.725-0.785-76.8zM403.285 230.161c52.736 0 95.642-42.906 95.642-95.642s-42.906-95.676-95.642-95.676-95.642 42.94-95.642 95.676c0.034 52.702 42.906 95.642 95.642 95.642zM403.285 78.131c31.061 0 56.32 25.293 56.32 56.354s-25.259 56.32-56.32 56.32c-31.027 0-56.286-25.259-56.286-56.32s25.259-56.354 56.286-56.354zM792.405 230.161c52.736 0 95.642-42.906 95.642-95.642s-42.906-95.676-95.642-95.676c-52.736 0-95.642 42.94-95.642 95.676 0.034 52.702 42.906 95.642 95.642 95.642zM792.405 78.131c31.061 0 56.32 25.293 56.32 56.354s-25.259 56.32-56.32 56.32c-31.027 0-56.286-25.259-56.286-56.32s25.259-56.354 56.286-56.354z" />
</font>
</defs>
</svg>
